<?xml version="1.0" encoding="UTF-8"?>
<svg width="30px" height="60px" viewBox="0 0 30 60" version="1.1" xmlns="http://www.w3.org/2000/svg" xmlns:xlink="http://www.w3.org/1999/xlink">
    <title>Artboard</title>
    <g id="Artboard" stroke="none" stroke-width="1" fill="none" fill-rule="evenodd">
        <g id="about" fill="#FFFFFF" fill-rule="nonzero">
            <path d="M0,3.75 C0,2.75544286 0.395088571,1.80161429 1.09835,1.09835 C1.80161429,0.395088571 2.75544286,0 3.75,0 L26.25,0 C27.2445714,0 28.1984286,0.395088571 28.9017143,1.09835 C29.6048571,1.80161429 30,2.75544286 30,3.75 L30,26.25 C30,27.2445714 29.6048571,28.1984286 28.9017143,28.9017143 C28.1984286,29.6048571 27.2445714,30 26.25,30 L3.75,30 C2.75544286,30 1.80161429,29.6048571 1.09835,28.9017143 C0.395088571,28.1984286 0,27.2445714 0,26.25 L0,3.75 Z M16.7437143,12.3525 L12.45,12.8906286 L12.2962571,13.6031286 L13.14,13.7587429 C13.6912429,13.89 13.8,14.0887571 13.68,14.6381429 L12.2962571,21.1405714 C11.9325,22.8224286 12.4931286,23.6137143 13.8112571,23.6137143 C14.8331429,23.6137143 16.02,23.1412857 16.5581429,22.4925714 L16.7231429,21.7124286 C16.3481429,22.0424286 15.8005714,22.1737143 15.4368571,22.1737143 C14.9212857,22.1737143 14.7337143,21.8118571 14.8668571,21.1744286 L16.7437143,12.3525 Z M15,10.3125 C15.4972857,10.3125 15.9741429,10.1149571 16.3258571,9.76332857 C16.6774286,9.4117 16.875,8.93478571 16.875,8.4375 C16.875,7.94021429 16.6774286,7.4633 16.3258571,7.11167143 C15.9741429,6.76004286 15.4972857,6.5625 15,6.5625 C14.5027143,6.5625 14.0258,6.76004286 13.6741714,7.11167143 C13.3225429,7.4633 13.125,7.94021429 13.125,8.4375 C13.125,8.93478571 13.3225429,9.4117 13.6741714,9.76332857 C14.0258,10.1149571 14.5027143,10.3125 15,10.3125 Z" id="Shape"></path>
        </g>
        <g id="about-copy" transform="translate(0.000000, 30.000000)" fill="#FBC407" fill-rule="nonzero">
            <path d="M0,3.75 C0,2.75544286 0.395088571,1.80161429 1.09835,1.09835 C1.80161429,0.395088571 2.75544286,0 3.75,0 L26.25,0 C27.2445714,0 28.1984286,0.395088571 28.9017143,1.09835 C29.6048571,1.80161429 30,2.75544286 30,3.75 L30,26.25 C30,27.2445714 29.6048571,28.1984286 28.9017143,28.9017143 C28.1984286,29.6048571 27.2445714,30 26.25,30 L3.75,30 C2.75544286,30 1.80161429,29.6048571 1.09835,28.9017143 C0.395088571,28.1984286 0,27.2445714 0,26.25 L0,3.75 Z M16.7437143,12.3525 L12.45,12.8906286 L12.2962571,13.6031286 L13.14,13.7587429 C13.6912429,13.89 13.8,14.0887571 13.68,14.6381429 L12.2962571,21.1405714 C11.9325,22.8224286 12.4931286,23.6137143 13.8112571,23.6137143 C14.8331429,23.6137143 16.02,23.1412857 16.5581429,22.4925714 L16.7231429,21.7124286 C16.3481429,22.0424286 15.8005714,22.1737143 15.4368571,22.1737143 C14.9212857,22.1737143 14.7337143,21.8118571 14.8668571,21.1744286 L16.7437143,12.3525 Z M15,10.3125 C15.4972857,10.3125 15.9741429,10.1149571 16.3258571,9.76332857 C16.6774286,9.4117 16.875,8.93478571 16.875,8.4375 C16.875,7.94021429 16.6774286,7.4633 16.3258571,7.11167143 C15.9741429,6.76004286 15.4972857,6.5625 15,6.5625 C14.5027143,6.5625 14.0258,6.76004286 13.6741714,7.11167143 C13.3225429,7.4633 13.125,7.94021429 13.125,8.4375 C13.125,8.93478571 13.3225429,9.4117 13.6741714,9.76332857 C14.0258,10.1149571 14.5027143,10.3125 15,10.3125 Z" id="Shape"></path>
        </g>
    </g>
</svg>