<?xml version="1.0" encoding="UTF-8"?>
<svg width="30px" height="60px" viewBox="0 0 30 60" version="1.1" xmlns="http://www.w3.org/2000/svg" xmlns:xlink="http://www.w3.org/1999/xlink">
    <title>Artboard</title>
    <g id="Artboard" stroke="none" stroke-width="1" fill="none" fill-rule="evenodd">
        <g id="report-problem" fill="#FFFFF0" fill-rule="nonzero">
            <path d="M21.2167143,0 L8.78332857,0 L0,8.78332857 L0,21.2167143 L8.78332857,30 L21.2167143,30 L30,21.2167143 L30,8.78332857 L21.2167143,0 Z M15,23.8332857 C13.8,23.8332857 12.8333286,22.8667143 12.8333286,21.6667143 C12.8333286,20.4667143 13.8,19.5 15,19.5 C16.2,19.5 17.1667143,20.4667143 17.1667143,21.6667143 C17.1667143,22.8667143 16.2,23.8332857 15,23.8332857 Z M16.6667143,16.6667143 L13.3333286,16.6667143 L13.3333286,6.66667143 L16.6667143,6.66667143 L16.6667143,16.6667143 Z" id="Shape"></path>
        </g>
        <g id="report-problem-copy" transform="translate(0.000000, 30.000000)" fill="#FBC407" fill-rule="nonzero">
            <path d="M21.2167143,0 L8.78332857,0 L0,8.78332857 L0,21.2167143 L8.78332857,30 L21.2167143,30 L30,21.2167143 L30,8.78332857 L21.2167143,0 Z M15,23.8332857 C13.8,23.8332857 12.8333286,22.8667143 12.8333286,21.6667143 C12.8333286,20.4667143 13.8,19.5 15,19.5 C16.2,19.5 17.1667143,20.4667143 17.1667143,21.6667143 C17.1667143,22.8667143 16.2,23.8332857 15,23.8332857 Z M16.6667143,16.6667143 L13.3333286,16.6667143 L13.3333286,6.66667143 L16.6667143,6.66667143 L16.6667143,16.6667143 Z" id="Shape"></path>
        </g>
    </g>
</svg>