<?xml version="1.0" encoding="UTF-8"?>
<svg width="30px" height="60px" viewBox="0 0 30 60" version="1.1" xmlns="http://www.w3.org/2000/svg" xmlns:xlink="http://www.w3.org/1999/xlink">
    <title>Artboard</title>
    <g id="Artboard" stroke="none" stroke-width="1" fill="none" fill-rule="evenodd">
        <g id="privacy-policy" transform="translate(4.000000, 0.000000)" fill="#FFFFF0" fill-rule="nonzero">
            <path d="M1.45444316,4.51461266 C0.574444316,4.95472516 0,5.94498766 0,7.03151266 L0,13.4957502 C0,21.1290002 4.69332947,28.2670002 11,30 C17.3067053,28.2670002 22,21.1290002 22,13.4957502 L22,7.03151266 C22,5.94498766 21.4255684,4.95472516 20.5455684,4.51461266 L11.99,0.237248906 C11.3544432,-0.0790829687 10.6333295,-0.0790829687 10.01,0.237248906 L1.45444316,4.51461266 L1.45444316,4.51461266 Z M11,7.99427516 C11.6722737,7.99427516 12.2222737,8.61317516 12.2222737,9.36962516 C12.2222737,10.1260752 11.6722737,10.7449877 11,10.7449877 C10.3277726,10.7449877 9.77777263,10.1260752 9.77777263,9.36962516 C9.77777263,8.61317516 10.3277726,7.99427516 11,7.99427516 Z M11,13.4957502 C11.6722737,13.4957502 12.2222737,14.1146252 12.2222737,14.8710002 L12.2222737,20.3725002 C12.2222737,21.1290002 11.6722737,21.7478752 11,21.7478752 C10.3277726,21.7478752 9.77777263,21.1290002 9.77777263,20.3725002 L9.77777263,14.8710002 C9.77777263,14.1146252 10.3277726,13.4957502 11,13.4957502 Z" id="Shape"></path>
        </g>
        <g id="privacy-policy-copy" transform="translate(4.000000, 30.000000)" fill="#FBC407" fill-rule="nonzero">
            <path d="M1.45444316,4.51461266 C0.574444316,4.95472516 0,5.94498766 0,7.03151266 L0,13.4957502 C0,21.1290002 4.69332947,28.2670002 11,30 C17.3067053,28.2670002 22,21.1290002 22,13.4957502 L22,7.03151266 C22,5.94498766 21.4255684,4.95472516 20.5455684,4.51461266 L11.99,0.237248906 C11.3544432,-0.0790829687 10.6333295,-0.0790829687 10.01,0.237248906 L1.45444316,4.51461266 L1.45444316,4.51461266 Z M11,7.99427516 C11.6722737,7.99427516 12.2222737,8.61317516 12.2222737,9.36962516 C12.2222737,10.1260752 11.6722737,10.7449877 11,10.7449877 C10.3277726,10.7449877 9.77777263,10.1260752 9.77777263,9.36962516 C9.77777263,8.61317516 10.3277726,7.99427516 11,7.99427516 Z M11,13.4957502 C11.6722737,13.4957502 12.2222737,14.1146252 12.2222737,14.8710002 L12.2222737,20.3725002 C12.2222737,21.1290002 11.6722737,21.7478752 11,21.7478752 C10.3277726,21.7478752 9.77777263,21.1290002 9.77777263,20.3725002 L9.77777263,14.8710002 C9.77777263,14.1146252 10.3277726,13.4957502 11,13.4957502 Z" id="Shape"></path>
        </g>
    </g>
</svg>