<?xml version="1.0" encoding="UTF-8"?>
<svg width="27px" height="31px" viewBox="0 0 27 31" version="1.1" xmlns="http://www.w3.org/2000/svg" xmlns:xlink="http://www.w3.org/1999/xlink">
    <title>bank</title>
    <g id="Page-1" stroke="none" stroke-width="1" fill="none" fill-rule="evenodd">
        <g id="bank" fill="#000000" fill-rule="nonzero">
            <path d="M14.1952,0.371508 C13.9099,0.130313 13.5635,1.77635684e-15 13.2076,1.77635684e-15 C12.8516,1.77635684e-15 12.5052,0.130313 12.2199,0.371508 L0.52096,10.263288 C-0.469602,11.100188 0.053564,12.882988 1.28847,12.882988 L25.1274,12.882988 C26.363,12.882988 26.8854,11.100188 25.8956,10.263288 L14.1952,0.371508 Z M13.2076,8.311038 C12.8183,8.311038 12.4451,8.135918 12.1699,7.824188 C11.8947,7.512468 11.74,7.089678 11.74,6.648838 C11.74,6.207988 11.8947,5.785198 12.1699,5.473478 C12.4451,5.161748 12.8183,4.986628 13.2076,4.986628 C13.5968,4.986628 13.97,5.161748 14.2452,5.473478 C14.5204,5.785198 14.6751,6.207988 14.6751,6.648838 C14.6751,7.089678 14.5204,7.512468 14.2452,7.824188 C13.97,8.135918 13.5968,8.311038 13.2076,8.311038 Z M0,28.466088 C0,26.055088 1.72432,24.101988 3.8522,24.101988 L22.5629,24.101988 C24.6908,24.101988 26.4151,26.055088 26.4151,28.465288 L26.4151,29.711988 C26.4151,30.285388 26.0042,30.749989 25.4979,30.749989 L0.91719,30.749989 C0.4109,30.750788 0,30.285388 0,29.711988 L0,28.465288 L0,28.466088 Z M5.87002,22.439788 L2.93501,22.439788 L2.93501,14.544288 L5.87002,14.544288 L5.87002,22.439788 Z M8.80504,14.544288 L8.80504,22.439788 L11.74,22.439788 L11.74,14.544288 L8.80504,14.544288 Z M14.6751,14.544288 L14.6751,22.439788 L17.6101,22.439788 L17.6101,14.544288 L14.6751,14.544288 Z M20.5451,14.544288 L20.5451,22.439788 L23.4801,22.439788 L23.4801,14.544288 L20.5451,14.544288 Z" id="Shape"></path>
        </g>
    </g>
</svg>