<?xml version="1.0" encoding="UTF-8"?>
<svg width="30px" height="60px" viewBox="0 0 30 60" version="1.1" xmlns="http://www.w3.org/2000/svg" xmlns:xlink="http://www.w3.org/1999/xlink">
    <title>Artboard</title>
    <g id="Artboard" stroke="none" stroke-width="1" fill="none" fill-rule="evenodd">
        <g id="bonus" fill="#FFFFFF" fill-rule="nonzero">
            <path d="M23.6914196,9.13110562 C24.3051347,8.74824139 24.8813804,8.32050823 25.4142792,7.85241441 C26.5328522,6.86208276 27.2807716,5.64410119 27.520772,4.42231965 C27.7842825,3.08290756 27.3985677,1.8383599 26.462199,1.01119104 C25.7164837,0.350978178 24.7050537,-6.86494132e-16 23.5371336,-6.86494132e-16 C21.8764782,-6.86494132e-16 20.1236185,0.705749585 18.732841,1.93701307 C16.5064705,3.90818768 15.2099789,6.6268329 14.5114064,8.56954143 C13.9950384,6.61924419 12.9642614,3.98596348 10.9607238,2.21210645 C9.88715086,1.26161831 8.51358971,0.772152442 7.21501643,0.772152442 C6.15430063,0.772152442 5.14715633,1.09846677 4.39286954,1.76437284 C2.71929572,3.24607034 2.9464389,5.84899623 4.89858455,7.57732104 C5.59501412,8.19390615 6.40928875,8.70613813 7.26643283,9.13110562 L-5.43783483e-16,9.13110562 L-5.43783483e-16,16.7197659 L2.14286633,16.7197659 L2.14286633,30 L27.8571398,30 L27.8571398,16.7197659 L30,16.7197659 L30,9.13110562 L23.6893379,9.13110562 L23.6914196,9.13110562 Z M20.4364761,3.44527667 C21.3642734,2.62379652 22.523622,2.13243066 23.535052,2.13243066 C23.8928484,2.13243066 24.3964818,2.19882902 24.7564823,2.51755464 C25.6285652,3.28970259 25.1379114,5.07684829 23.7085624,6.34226207 C22.2364787,7.64561938 20.2585575,8.5410866 18.537902,9.13110562 L16.8407567,9.13110562 C17.4621862,7.42554693 18.5828408,5.08632574 20.4364761,3.44527667 L20.4364761,3.44527667 Z M5.69143058,4.41473095 C5.66785912,4.14343755 5.68928772,3.63688304 6.10071688,3.27452518 C6.40309282,3.02573931 6.80462809,2.89335857 7.21715929,2.9064786 C7.92858888,2.9064786 8.67214912,3.20432684 9.25714996,3.7203588 C10.390723,4.72396787 11.3250223,6.32139594 11.9571171,8.34188028 L12.0064641,8.50504306 L11.8221781,8.46141082 C9.54215037,7.90173537 7.73786207,7.07456651 6.60214617,6.07096867 C6.08785972,5.63155453 5.76469191,5.04587513 5.68929996,4.41663093 L5.69143058,4.41473095 Z M12.8593225,28.1028237 L4.28786939,28.1028237 L4.28786939,15.7712339 L12.8593225,15.7712339 L12.8593225,28.1028237 Z M12.8593225,14.8225896 L2.14500919,14.8225896 L2.14500919,11.028237 L12.8593225,11.028237 L12.8593225,14.8225896 Z M25.7164837,28.1028237 L17.1450429,28.1028237 L17.1450429,15.7712339 L25.7164837,15.7712339 L25.7164837,28.1028237 Z M27.8593439,14.8225896 L17.1450429,14.8225896 L17.1450429,11.028237 L27.8593439,11.028237 L27.8593439,14.8225896 Z" id="Shape"></path>
        </g>
        <g id="bonus-copy" transform="translate(0.000000, 30.000000)" fill="#FBC407" fill-rule="nonzero">
            <path d="M23.6914196,9.13110562 C24.3051347,8.74824139 24.8813804,8.32050823 25.4142792,7.85241441 C26.5328522,6.86208276 27.2807716,5.64410119 27.520772,4.42231965 C27.7842825,3.08290756 27.3985677,1.8383599 26.462199,1.01119104 C25.7164837,0.350978178 24.7050537,-6.86494132e-16 23.5371336,-6.86494132e-16 C21.8764782,-6.86494132e-16 20.1236185,0.705749585 18.732841,1.93701307 C16.5064705,3.90818768 15.2099789,6.6268329 14.5114064,8.56954143 C13.9950384,6.61924419 12.9642614,3.98596348 10.9607238,2.21210645 C9.88715086,1.26161831 8.51358971,0.772152442 7.21501643,0.772152442 C6.15430063,0.772152442 5.14715633,1.09846677 4.39286954,1.76437284 C2.71929572,3.24607034 2.9464389,5.84899623 4.89858455,7.57732104 C5.59501412,8.19390615 6.40928875,8.70613813 7.26643283,9.13110562 L-5.43783483e-16,9.13110562 L-5.43783483e-16,16.7197659 L2.14286633,16.7197659 L2.14286633,30 L27.8571398,30 L27.8571398,16.7197659 L30,16.7197659 L30,9.13110562 L23.6893379,9.13110562 L23.6914196,9.13110562 Z M20.4364761,3.44527667 C21.3642734,2.62379652 22.523622,2.13243066 23.535052,2.13243066 C23.8928484,2.13243066 24.3964818,2.19882902 24.7564823,2.51755464 C25.6285652,3.28970259 25.1379114,5.07684829 23.7085624,6.34226207 C22.2364787,7.64561938 20.2585575,8.5410866 18.537902,9.13110562 L16.8407567,9.13110562 C17.4621862,7.42554693 18.5828408,5.08632574 20.4364761,3.44527667 L20.4364761,3.44527667 Z M5.69143058,4.41473095 C5.66785912,4.14343755 5.68928772,3.63688304 6.10071688,3.27452518 C6.40309282,3.02573931 6.80462809,2.89335857 7.21715929,2.9064786 C7.92858888,2.9064786 8.67214912,3.20432684 9.25714996,3.7203588 C10.390723,4.72396787 11.3250223,6.32139594 11.9571171,8.34188028 L12.0064641,8.50504306 L11.8221781,8.46141082 C9.54215037,7.90173537 7.73786207,7.07456651 6.60214617,6.07096867 C6.08785972,5.63155453 5.76469191,5.04587513 5.68929996,4.41663093 L5.69143058,4.41473095 Z M12.8593225,28.1028237 L4.28786939,28.1028237 L4.28786939,15.7712339 L12.8593225,15.7712339 L12.8593225,28.1028237 Z M12.8593225,14.8225896 L2.14500919,14.8225896 L2.14500919,11.028237 L12.8593225,11.028237 L12.8593225,14.8225896 Z M25.7164837,28.1028237 L17.1450429,28.1028237 L17.1450429,15.7712339 L25.7164837,15.7712339 L25.7164837,28.1028237 Z M27.8593439,14.8225896 L17.1450429,14.8225896 L17.1450429,11.028237 L27.8593439,11.028237 L27.8593439,14.8225896 Z" id="Shape"></path>
        </g>
    </g>
</svg>