<?xml version="1.0" encoding="UTF-8"?>
<svg width="30px" height="60px" viewBox="0 0 30 60" version="1.1" xmlns="http://www.w3.org/2000/svg" xmlns:xlink="http://www.w3.org/1999/xlink">
    <title>Artboard</title>
    <g id="Artboard" stroke="none" stroke-width="1" fill="none" fill-rule="evenodd">
        <g id="change-psw" transform="translate(0.000000, 0.000000)" fill-rule="nonzero">
            <path d="M20.3555827,2.58923061e-07 C18.849944,-0.000344799874 17.3650653,0.352035856 16.0201064,1.02890305 C14.6751476,1.70577624 13.5074286,2.68830024 12.6104293,3.89776823 C11.7135501,5.10723621 11.1123746,6.5100002 10.8551428,7.99364419 C10.597899,9.47730018 10.6917509,11.0005802 11.1291626,12.4414802 L0,23.5714801 L0,30.0000003 L6.42808255,30.0000003 L17.5573051,18.8700001 C18.883424,19.2726001 20.2809428,19.3845601 21.6543416,19.1982001 C23.0276205,19.0118401 24.3447394,18.5314801 25.5156984,17.7900001 C26.6867774,17.0486401 27.6842165,16.0633201 28.4399759,14.9014801 C29.1958553,13.7397601 29.6922948,12.4285202 29.8956947,11.0574962 C30.0989745,9.68641218 30.0044146,8.28760819 29.6182549,6.9564002 C29.2320952,5.62520421 28.5635758,4.39288822 27.6581766,3.34346423 C26.7526573,2.29402824 25.6317383,1.45213225 24.3714993,0.875154251 C23.1113804,0.298177456 21.7415816,-0.000320927075 20.3555827,2.58923061e-07 L20.3555827,2.58923061e-07 Z M20.3555827,17.1428401 C19.6179434,17.1424801 18.884504,17.0334001 18.1786646,16.8193201 L16.9497456,16.4464801 L16.0423064,17.3539201 L12.6344293,20.7621601 L11.1570145,19.2856801 L9.64213583,20.8006801 L11.1195146,22.2782401 L9.42036402,23.9774401 L7.94297327,22.5000001 L6.42808255,24.0150001 L7.9054733,25.49244 L5.5410073,27.85716 L2.14269418,27.85716 L2.14269418,24.45852 L12.6440293,13.9564801 L13.5525485,13.0489201 L13.1797088,11.8200002 C12.7217892,10.3103522 12.7515492,8.69473218 13.2647888,7.2029642 C13.7779083,5.71119621 14.7483475,4.41924022 16.0381064,3.51088823 C17.3278653,2.60252424 18.871184,2.12401224 20.4484627,2.14342824 C22.0258613,2.16283224 23.55694,2.67916824 24.823899,3.61898423 C26.0908579,4.55880022 27.0292571,5.87424021 27.5056567,7.3781762 C27.9819363,8.88212418 27.9719763,10.4979842 27.4769767,11.9959082 C26.9820971,13.4938801 26.0274979,14.7975601 24.748899,15.7215601 C23.4704201,16.6456801 21.9331014,17.1429601 20.3555827,17.1428401 L20.3555827,17.1428401 Z" id="Shape" fill="#FFFFF0"></path>
            <path d="M21.5999817,10.8000002 C22.9255006,10.8000002 23.9999797,9.72548417 23.9999797,8.40000019 C23.9999797,7.0745162 22.9255006,6.00000021 21.5999817,6.00000021 C20.2744628,6.00000021 19.1999837,7.0745162 19.1999837,8.40000019 C19.1999837,9.72548417 20.2744628,10.8000002 21.5999817,10.8000002 Z" id="Path" fill="#FFFFFF"></path>
        </g>
        <g id="change-psw-copy" transform="translate(0.000000, 30.000000)" fill="#FBC407" fill-rule="nonzero">
            <path d="M20.3555827,2.58923061e-07 C18.849944,-0.000344799874 17.3650653,0.352035856 16.0201064,1.02890305 C14.6751476,1.70577624 13.5074286,2.68830024 12.6104293,3.89776823 C11.7135501,5.10723621 11.1123746,6.5100002 10.8551428,7.99364419 C10.597899,9.47730018 10.6917509,11.0005802 11.1291626,12.4414802 L0,23.5714801 L0,30.0000003 L6.42808255,30.0000003 L17.5573051,18.8700001 C18.883424,19.2726001 20.2809428,19.3845601 21.6543416,19.1982001 C23.0276205,19.0118401 24.3447394,18.5314801 25.5156984,17.7900001 C26.6867774,17.0486401 27.6842165,16.0633201 28.4399759,14.9014801 C29.1958553,13.7397601 29.6922948,12.4285202 29.8956947,11.0574962 C30.0989745,9.68641218 30.0044146,8.28760819 29.6182549,6.9564002 C29.2320952,5.62520421 28.5635758,4.39288822 27.6581766,3.34346423 C26.7526573,2.29402824 25.6317383,1.45213225 24.3714993,0.875154251 C23.1113804,0.298177456 21.7415816,-0.000320927075 20.3555827,2.58923061e-07 L20.3555827,2.58923061e-07 Z M20.3555827,17.1428401 C19.6179434,17.1424801 18.884504,17.0334001 18.1786646,16.8193201 L16.9497456,16.4464801 L16.0423064,17.3539201 L12.6344293,20.7621601 L11.1570145,19.2856801 L9.64213583,20.8006801 L11.1195146,22.2782401 L9.42036402,23.9774401 L7.94297327,22.5000001 L6.42808255,24.0150001 L7.9054733,25.49244 L5.5410073,27.85716 L2.14269418,27.85716 L2.14269418,24.45852 L12.6440293,13.9564801 L13.5525485,13.0489201 L13.1797088,11.8200002 C12.7217892,10.3103522 12.7515492,8.69473218 13.2647888,7.2029642 C13.7779083,5.71119621 14.7483475,4.41924022 16.0381064,3.51088823 C17.3278653,2.60252424 18.871184,2.12401224 20.4484627,2.14342824 C22.0258613,2.16283224 23.55694,2.67916824 24.823899,3.61898423 C26.0908579,4.55880022 27.0292571,5.87424021 27.5056567,7.3781762 C27.9819363,8.88212418 27.9719763,10.4979842 27.4769767,11.9959082 C26.9820971,13.4938801 26.0274979,14.7975601 24.748899,15.7215601 C23.4704201,16.6456801 21.9331014,17.1429601 20.3555827,17.1428401 L20.3555827,17.1428401 Z" id="Shape"></path>
            <path d="M21.5999817,10.8000002 C22.9255006,10.8000002 23.9999797,9.72548417 23.9999797,8.40000019 C23.9999797,7.0745162 22.9255006,6.00000021 21.5999817,6.00000021 C20.2744628,6.00000021 19.1999837,7.0745162 19.1999837,8.40000019 C19.1999837,9.72548417 20.2744628,10.8000002 21.5999817,10.8000002 Z" id="Path"></path>
        </g>
    </g>
</svg>