<?xml version="1.0" encoding="UTF-8"?>
<svg width="15px" height="15px" viewBox="0 0 15 15" version="1.1" xmlns="http://www.w3.org/2000/svg" xmlns:xlink="http://www.w3.org/1999/xlink">
    <title>cup-icon</title>
    <g id="Page-1" stroke="none" stroke-width="1" fill="none" fill-rule="evenodd">
        <g id="cup-icon" fill="#000000" fill-rule="nonzero">
            <path d="M13.75,1.875 L12.5,1.875 L12.5,1.25 C12.4997,0.91858 12.3679,0.60083 12.1335,0.366482 C11.8992,0.132133 11.5814,0.000331 11.25,0 L3.75,0 C3.41858,0.000331 3.10083,0.132133 2.86648,0.366482 C2.63213,0.60083 2.50033,0.91858 2.5,1.25 L2.5,1.875 L1.25,1.875 C0.91858,1.87533 0.60083,2.00713 0.366482,2.24148 C0.132133,2.47583 0.000331,2.79358 0,3.125 L0,5 C0.000827,5.66279 0.264485,6.29819 0.73315,6.76685 C1.20181,7.23552 1.83721,7.49917 2.5,7.5 L2.70125,7.5 C2.96169,8.45669 3.49506,9.31686 4.23624,9.9755 C4.97741,10.6341 5.89432,11.0626 6.875,11.2087 L6.875,13.75 L3.75,13.75 L3.75,15 L11.25,15 L11.25,13.75 L8.125,13.75 L8.125,11.2069 C9.11842,11.0841 10.0517,10.6647 10.8032,10.0034 C11.5547,9.34215 12.0894,8.46973 12.3375,7.5 L12.5,7.5 C13.1628,7.49917 13.7982,7.23552 14.2669,6.76685 C14.7355,6.29819 14.9992,5.66279 15,5 L15,3.125 C14.9997,2.79358 14.8679,2.47583 14.6335,2.24148 C14.3992,2.00713 14.0814,1.87533 13.75,1.875 Z M2.5,6.25 C2.16858,6.24967 1.85083,6.11787 1.61648,5.88352 C1.38213,5.64917 1.25033,5.33142 1.25,5 L1.25,3.125 L2.5,3.125 L2.5,6.25 Z M13.75,5 C13.7497,5.33142 13.6179,5.64917 13.3835,5.88352 C13.1492,6.11787 12.8314,6.24967 12.5,6.25 L12.5,3.125 L13.75,3.125 L13.75,5 Z" id="Shape"></path>
        </g>
    </g>
</svg>