<svg width="18" height="18" viewBox="0 0 18 18" fill="none" xmlns="http://www.w3.org/2000/svg">
<path d="M15.373 15.2591C17.0163 13.5903 17.9374 11.3421 17.9374 9.00004C17.9374 6.65795 17.0163 4.4098 15.373 2.74096C15.3401 2.69826 15.3018 2.65994 15.2591 2.62692C13.5902 0.983594 11.3421 0.0625 8.99992 0.0625C6.65779 0.0625 4.4096 0.983594 2.74075 2.62692C2.69805 2.65994 2.65973 2.69826 2.62671 2.74096C0.983439 4.4098 0.0623779 6.65795 0.0623779 9.00004C0.0623779 11.3421 0.983439 13.5903 2.62671 15.2591C2.65975 15.3018 2.6981 15.3402 2.74084 15.3732C4.40968 17.0164 6.65783 17.9375 8.99992 17.9375C11.342 17.9375 13.5902 17.0164 15.259 15.3732C15.3017 15.3402 15.34 15.3018 15.373 15.2591ZM1.46913 9.68754H3.54452C3.66727 10.6656 4.05196 11.5923 4.65793 12.3698L3.19098 13.8367C2.20817 12.6611 1.60747 11.2136 1.46913 9.68754ZM3.19106 4.16348L4.65793 5.63026C4.05193 6.40773 3.66721 7.33447 3.54444 8.31254H1.46905C1.60743 6.78652 2.20824 5.33905 3.19106 4.16348ZM16.5308 8.31254H14.4554C14.3327 7.33448 13.948 6.40774 13.342 5.63026L14.809 4.1634C15.7917 5.33901 16.3925 6.78651 16.5308 8.31254ZM12.3697 4.65788C11.5922 4.05193 10.6655 3.66727 9.68742 3.54456V1.46917C11.2134 1.60756 12.6609 2.20828 13.8365 3.1911L12.3697 4.65788ZM8.31242 3.54456C7.33437 3.66727 6.40763 4.05193 5.63014 4.65788L4.16336 3.1911C5.33892 2.20825 6.78639 1.6075 8.31242 1.46908V3.54456ZM5.63014 13.3422C6.40763 13.9482 7.33437 14.3328 8.31242 14.4555V16.5309C6.7864 16.3925 5.33893 15.7918 4.16336 14.809L5.63014 13.3422ZM9.68742 14.4555C10.6655 14.3328 11.5922 13.9482 12.3697 13.3422L13.8366 14.809C12.661 15.7919 11.2135 16.3926 9.68742 16.531V14.4555ZM13.342 12.3698C13.948 11.5923 14.3327 10.6656 14.4554 9.68754H16.5308C16.3924 11.2136 15.7917 12.661 14.8089 13.8366L13.342 12.3698Z" fill="black"/>
</svg>
