<?xml version="1.0" encoding="UTF-8"?>
<svg width="30px" height="27px" viewBox="0 0 30 27" version="1.1" xmlns="http://www.w3.org/2000/svg" xmlns:xlink="http://www.w3.org/1999/xlink">
    <title>filter-icon</title>
    <g id="Page-1" stroke="none" stroke-width="1" fill="none" fill-rule="evenodd">
        <g id="filter-icon" fill="#FFFFFF" fill-rule="nonzero">
            <path d="M3.74700271e-16,0 L3.74700271e-16,1.68 C0.0028178,1.87783 0.0836889,2.06653 0.2249989,2.205 L11.1450039,13.245 C11.2863039,13.3835 11.3672039,13.5722 11.3700039,13.77 L11.3700039,24.105 C11.3697039,24.2456 11.4089039,24.3834 11.4832039,24.5027 C11.5575039,24.6221 11.6638039,24.7182 11.7900039,24.78 L17.7150039,26.895 C17.8295039,26.9511 17.9563039,26.9771 18.0836039,26.9705 C18.2109039,26.9639 18.3344039,26.9251 18.4425039,26.8575 C18.5506039,26.7899 18.6397039,26.696 18.7013039,26.5844 C18.7630039,26.4729 18.7952039,26.3475 18.7950039,26.22 L18.7950039,13.635 C18.8157039,13.4323 18.9122039,13.2448 19.0650039,13.11 L29.7450039,2.235 C29.8863039,2.09653 29.9672039,1.90783 29.9700039,1.71 L29.9700039,0 L3.74700271e-16,0 Z" id="Path"></path>
        </g>
    </g>
</svg>