<?xml version="1.0" encoding="UTF-8"?>
<svg width="30px" height="60px" viewBox="0 0 30 60" version="1.1" xmlns="http://www.w3.org/2000/svg" xmlns:xlink="http://www.w3.org/1999/xlink">
    <title>Artboard</title>
    <g id="Artboard" stroke="none" stroke-width="1" fill="none" fill-rule="evenodd">
        <g id="game-transaction" transform="translate(0.000000, 2.000000)" fill-rule="nonzero">
            <path d="M6.08335183,7.8590411 L8.44342219,7.13650472 C8.62940083,7.0796403 8.82475283,7.0599524 9.01833772,7.07858388 C9.21188419,7.09720575 9.39992766,7.15378206 9.57164458,7.24506669 C9.74336149,7.33636093 9.8953905,7.46057718 10.0191842,7.61063741 C10.1428818,7.76069763 10.2358471,7.93364384 10.292702,8.11962247 C10.3495568,8.30560111 10.3692447,8.50095311 10.3506132,8.694538 C10.3319817,8.88816131 10.275415,9.07610874 10.1840824,9.24782565 C10.0928457,9.41954257 9.96857187,9.57166762 9.81855967,9.69536526 C9.66845143,9.8190629 9.49558205,9.91202821 9.30955539,9.96888303 L3.64629698,11.7012263 C3.4602223,11.7580811 3.26476466,11.777769 3.07109333,11.7590415 C2.87742201,11.740314 2.68933052,11.6836512 2.51758479,11.5922225 C2.34583907,11.5006978 2.19380045,11.3763279 2.07016043,11.2261236 C1.94653002,11.0758233 1.85370876,10.9027618 1.79703642,10.7165431 L0.0647383222,5.05331348 C0.0078662179,4.86733485 -0.0118188022,4.67198285 0.00680883355,4.47839795 C0.0254355089,4.28481306 0.0820098937,4.0967888 0.173300291,3.92507189 C0.357670284,3.57826711 0.672252214,3.31890542 1.04784935,3.20405293 C1.42344649,3.08919083 1.82928616,3.1282401 2.17609094,3.31261489 C2.34781746,3.40389953 2.49986568,3.52812538 2.62358253,3.678176 C2.74729939,3.82823623 2.84024549,4.00119204 2.89710991,4.18716107 L3.54857776,6.32070532 C7.1138454,0.829173424 14.1866807,-1.53237017 20.4658727,1.0409 C22.3437143,1.8106009 24.0300551,2.9824728 25.4062874,4.4740378 C26.7824237,5.96561241 27.8150301,7.74064478 28.4314055,9.67423678 C28.4945989,9.86055156 28.5200491,10.0575266 28.5063156,10.2537333 C28.492486,10.4499401 28.4397609,10.6414409 28.3511173,10.8169994 C28.2624737,10.9925579 28.1397364,11.1488126 27.9901084,11.2764478 C27.8404803,11.404083 27.6668427,11.5006018 27.4794715,11.5603377 C27.2921003,11.6201697 27.0947411,11.6420665 26.8988224,11.6246835 C26.7028078,11.6073966 26.5123633,11.551118 26.3383415,11.4594012 C26.1644157,11.3675884 26.0104659,11.242066 25.8856158,11.090133 C25.7606697,10.9382 25.6673202,10.7628337 25.6109456,10.574406 C24.9853505,8.61025458 23.8171377,6.86302537 22.2409531,5.534505 C20.6646725,4.20598463 18.7449581,3.35036765 16.7031786,3.06642969 C14.6613992,2.78249174 12.5810123,3.08181507 10.7021143,3.92985461 C8.82325463,4.77789415 7.22255142,6.14004722 6.08483083,7.8590411 L6.08335183,7.8590411 Z M24.3345933,19.9925218 L21.7065947,20.648369 C21.5162463,20.700614 21.3174465,20.7142514 21.121816,20.6885131 C20.9261855,20.6627748 20.7376618,20.5981408 20.5673855,20.4985489 C20.3971091,20.3988609 20.2483454,20.2662316 20.130122,20.1082482 C20.0118025,19.9503609 19.9262321,19.7703846 19.878501,19.5789798 C19.8306738,19.387479 19.8216462,19.1883911 19.8518983,18.9934328 C19.8822465,18.7984746 19.9511061,18.6114875 20.0547317,18.4435161 C20.1582613,18.2755447 20.2943479,18.1299503 20.4549243,18.0153763 C20.6155968,17.9007063 20.7974938,17.8193616 20.989955,17.7760483 L26.3837677,16.4301641 C26.6647765,16.2964785 26.9809354,16.2550859 27.2869142,16.3117486 C27.5817525,16.3505482 27.8581514,16.477223 28.0799044,16.6752545 C28.3017535,16.873382 28.4588725,17.1336464 28.5306133,17.4222423 L29.9638925,23.1668837 C30.0487906,23.5442192 29.98262,23.9398019 29.7796906,24.268926 C29.5767612,24.5981461 29.2530152,24.8348812 28.8777926,24.9285187 C28.5025701,25.0221563 28.1055467,24.9652055 27.7717167,24.7699591 C27.4378868,24.5746167 27.1937568,24.256441 27.0914757,23.8835233 L26.6029277,21.9261618 C25.1773316,23.9776411 23.224868,25.6066469 20.9511555,26.6415582 C18.677539,27.6765656 16.1668034,28.0791592 13.6835348,27.8068899 C11.2001701,27.5347167 8.83631587,26.5977646 6.84083663,25.0948575 C4.84534779,23.5918543 3.29214525,21.5785983 2.34484987,19.2670466 L1.95989858,18.3283659 C1.81107725,17.96486 1.81270991,17.5572725 1.96446041,17.1950151 C2.11620131,16.8328537 2.40562306,16.5456985 2.76904251,16.3968387 C3.13246196,16.248075 3.54012637,16.2497077 3.90233573,16.4014486 C4.2645547,16.5531895 4.55165232,16.8426497 4.70047365,17.2060595 L5.08543454,18.1432036 C5.84016303,19.9848387 7.08348761,21.585321 8.68122323,22.7720693 C10.2789684,23.9588176 12.1704475,24.6866937 14.1515306,24.8772341 C16.1327097,25.0676786 18.1281985,24.7134884 19.9227748,23.8529831 C21.717351,22.9923817 23.2428272,21.6580222 24.3345933,19.9939624 L24.3345933,19.9925218 Z" id="Shape" fill="#FFFFFF"></path>
            <path d="M19.0529537,11.3452114 L17.5844283,11.3452114 C17.456505,10.8789443 17.2302382,10.4430253 16.9199376,10.0646335 L19.0529537,10.0646335 C19.2291844,10.0646335 19.3982122,9.9972144 19.5227742,9.87716622 C19.6474323,9.75702201 19.7174444,9.59423668 19.7174444,9.42444053 C19.7174444,9.25464439 19.6474323,9.09176302 19.5227742,8.97171484 C19.3982122,8.85157062 19.2291844,8.78415157 19.0529537,8.78415157 L11.7435562,8.78415157 C11.5673255,8.78415157 11.3983937,8.85157062 11.2737357,8.97171484 C11.1491737,9.09176302 11.0791616,9.25464439 11.0791616,9.42444053 C11.0791616,9.59423668 11.1491737,9.75702201 11.2737357,9.87716622 C11.3983937,9.9972144 11.5673255,10.0646335 11.7435562,10.0646335 L14.0693216,10.0646335 C14.5080257,10.0661701 14.937318,10.1871786 15.3077386,10.4137336 C15.6781593,10.6402885 15.9744382,10.9632661 16.1624817,11.3452114 L11.7435562,11.3452114 C11.5673255,11.3452114 11.3983937,11.4126304 11.2737357,11.5326786 C11.1491737,11.6527268 11.0791616,11.8156082 11.0791616,11.9854043 C11.0791616,12.1552005 11.1491737,12.3180818 11.2737357,12.43813 C11.3983937,12.5582742 11.5673255,12.6256933 11.7435562,12.6256933 L16.394991,12.6256933 C16.315375,13.1574587 16.0400325,13.6439899 15.6191916,13.9965474 C15.1984468,14.3491049 14.6601507,14.5442552 14.1025509,14.5464641 L11.7435562,14.5464641 C11.7126318,14.5434869 11.6815153,14.5434869 11.6505909,14.5464641 C11.6065092,14.5398375 11.5617553,14.5398375 11.5176736,14.5464641 C11.4723434,14.5613501 11.4297983,14.5829588 11.3913829,14.6104258 L11.3116709,14.6552758 C11.2752723,14.6869685 11.2439637,14.7236552 11.2187056,14.7640875 C11.1964246,14.7925149 11.1764486,14.8224789 11.1588736,14.8537875 C11.1529192,14.8920108 11.1529192,14.9308104 11.1588736,14.9690337 C11.1115266,15.0328994 11.0838675,15.1083857 11.0791616,15.1866571 C11.0759923,15.216525 11.0759923,15.2464891 11.0791616,15.2763571 C11.0722468,15.3188061 11.0722468,15.3619274 11.0791616,15.4043764 C11.0945277,15.448074 11.1170008,15.4890824 11.1455242,15.5260573 C11.1455242,15.5260573 11.1455242,15.5772458 11.1921029,15.6028881 L15.179047,20.0846227 C15.2935249,20.2136985 15.4565984,20.2936026 15.6323489,20.3068559 C15.8080034,20.3200132 15.9820252,20.2654633 16.115903,20.155115 C16.2498767,20.0446707 16.332854,19.8875517 16.3464915,19.7183317 C16.360225,19.5490158 16.3035623,19.3813325 16.1889883,19.2523527 L13.1922016,15.826946 L14.0693216,15.826946 C14.9837046,15.8305955 15.8662988,15.5038724 16.5427943,14.9112185 C17.2193858,14.3185647 17.640899,13.5031014 17.7239723,12.6256933 L19.0529537,12.6256933 C19.2291844,12.6256933 19.3982122,12.5582742 19.5227742,12.43813 C19.6474323,12.3180818 19.7174444,12.1552005 19.7174444,11.9854043 C19.7174444,11.8156082 19.6474323,11.6527268 19.5227742,11.5326786 C19.3982122,11.4126304 19.2291844,11.3452114 19.0529537,11.3452114 Z" id="Path" fill="#FFFFF0"></path>
        </g>
        <g id="game-transaction-copy" transform="translate(0.000000, 30.000000)" fill="#FBC407" fill-rule="nonzero">
            <path d="M6.08335183,7.8590411 L8.44342219,7.13650472 C8.62940083,7.0796403 8.82475283,7.0599524 9.01833772,7.07858388 C9.21188419,7.09720575 9.39992766,7.15378206 9.57164458,7.24506669 C9.74336149,7.33636093 9.8953905,7.46057718 10.0191842,7.61063741 C10.1428818,7.76069763 10.2358471,7.93364384 10.292702,8.11962247 C10.3495568,8.30560111 10.3692447,8.50095311 10.3506132,8.694538 C10.3319817,8.88816131 10.275415,9.07610874 10.1840824,9.24782565 C10.0928457,9.41954257 9.96857187,9.57166762 9.81855967,9.69536526 C9.66845143,9.8190629 9.49558205,9.91202821 9.30955539,9.96888303 L3.64629698,11.7012263 C3.4602223,11.7580811 3.26476466,11.777769 3.07109333,11.7590415 C2.87742201,11.740314 2.68933052,11.6836512 2.51758479,11.5922225 C2.34583907,11.5006978 2.19380045,11.3763279 2.07016043,11.2261236 C1.94653002,11.0758233 1.85370876,10.9027618 1.79703642,10.7165431 L0.0647383222,5.05331348 C0.0078662179,4.86733485 -0.0118188022,4.67198285 0.00680883355,4.47839795 C0.0254355089,4.28481306 0.0820098937,4.0967888 0.173300291,3.92507189 C0.357670284,3.57826711 0.672252214,3.31890542 1.04784935,3.20405293 C1.42344649,3.08919083 1.82928616,3.1282401 2.17609094,3.31261489 C2.34781746,3.40389953 2.49986568,3.52812538 2.62358253,3.678176 C2.74729939,3.82823623 2.84024549,4.00119204 2.89710991,4.18716107 L3.54857776,6.32070532 C7.1138454,0.829173424 14.1866807,-1.53237017 20.4658727,1.0409 C22.3437143,1.8106009 24.0300551,2.9824728 25.4062874,4.4740378 C26.7824237,5.96561241 27.8150301,7.74064478 28.4314055,9.67423678 C28.4945989,9.86055156 28.5200491,10.0575266 28.5063156,10.2537333 C28.492486,10.4499401 28.4397609,10.6414409 28.3511173,10.8169994 C28.2624737,10.9925579 28.1397364,11.1488126 27.9901084,11.2764478 C27.8404803,11.404083 27.6668427,11.5006018 27.4794715,11.5603377 C27.2921003,11.6201697 27.0947411,11.6420665 26.8988224,11.6246835 C26.7028078,11.6073966 26.5123633,11.551118 26.3383415,11.4594012 C26.1644157,11.3675884 26.0104659,11.242066 25.8856158,11.090133 C25.7606697,10.9382 25.6673202,10.7628337 25.6109456,10.574406 C24.9853505,8.61025458 23.8171377,6.86302537 22.2409531,5.534505 C20.6646725,4.20598463 18.7449581,3.35036765 16.7031786,3.06642969 C14.6613992,2.78249174 12.5810123,3.08181507 10.7021143,3.92985461 C8.82325463,4.77789415 7.22255142,6.14004722 6.08483083,7.8590411 L6.08335183,7.8590411 Z M24.3345933,19.9925218 L21.7065947,20.648369 C21.5162463,20.700614 21.3174465,20.7142514 21.121816,20.6885131 C20.9261855,20.6627748 20.7376618,20.5981408 20.5673855,20.4985489 C20.3971091,20.3988609 20.2483454,20.2662316 20.130122,20.1082482 C20.0118025,19.9503609 19.9262321,19.7703846 19.878501,19.5789798 C19.8306738,19.387479 19.8216462,19.1883911 19.8518983,18.9934328 C19.8822465,18.7984746 19.9511061,18.6114875 20.0547317,18.4435161 C20.1582613,18.2755447 20.2943479,18.1299503 20.4549243,18.0153763 C20.6155968,17.9007063 20.7974938,17.8193616 20.989955,17.7760483 L26.3837677,16.4301641 C26.6647765,16.2964785 26.9809354,16.2550859 27.2869142,16.3117486 C27.5817525,16.3505482 27.8581514,16.477223 28.0799044,16.6752545 C28.3017535,16.873382 28.4588725,17.1336464 28.5306133,17.4222423 L29.9638925,23.1668837 C30.0487906,23.5442192 29.98262,23.9398019 29.7796906,24.268926 C29.5767612,24.5981461 29.2530152,24.8348812 28.8777926,24.9285187 C28.5025701,25.0221563 28.1055467,24.9652055 27.7717167,24.7699591 C27.4378868,24.5746167 27.1937568,24.256441 27.0914757,23.8835233 L26.6029277,21.9261618 C25.1773316,23.9776411 23.224868,25.6066469 20.9511555,26.6415582 C18.677539,27.6765656 16.1668034,28.0791592 13.6835348,27.8068899 C11.2001701,27.5347167 8.83631587,26.5977646 6.84083663,25.0948575 C4.84534779,23.5918543 3.29214525,21.5785983 2.34484987,19.2670466 L1.95989858,18.3283659 C1.81107725,17.96486 1.81270991,17.5572725 1.96446041,17.1950151 C2.11620131,16.8328537 2.40562306,16.5456985 2.76904251,16.3968387 C3.13246196,16.248075 3.54012637,16.2497077 3.90233573,16.4014486 C4.2645547,16.5531895 4.55165232,16.8426497 4.70047365,17.2060595 L5.08543454,18.1432036 C5.84016303,19.9848387 7.08348761,21.585321 8.68122323,22.7720693 C10.2789684,23.9588176 12.1704475,24.6866937 14.1515306,24.8772341 C16.1327097,25.0676786 18.1281985,24.7134884 19.9227748,23.8529831 C21.717351,22.9923817 23.2428272,21.6580222 24.3345933,19.9939624 L24.3345933,19.9925218 Z" id="Shape"></path>
            <path d="M19.0529537,11.3452114 L17.5844283,11.3452114 C17.456505,10.8789443 17.2302382,10.4430253 16.9199376,10.0646335 L19.0529537,10.0646335 C19.2291844,10.0646335 19.3982122,9.9972144 19.5227742,9.87716622 C19.6474323,9.75702201 19.7174444,9.59423668 19.7174444,9.42444053 C19.7174444,9.25464439 19.6474323,9.09176302 19.5227742,8.97171484 C19.3982122,8.85157062 19.2291844,8.78415157 19.0529537,8.78415157 L11.7435562,8.78415157 C11.5673255,8.78415157 11.3983937,8.85157062 11.2737357,8.97171484 C11.1491737,9.09176302 11.0791616,9.25464439 11.0791616,9.42444053 C11.0791616,9.59423668 11.1491737,9.75702201 11.2737357,9.87716622 C11.3983937,9.9972144 11.5673255,10.0646335 11.7435562,10.0646335 L14.0693216,10.0646335 C14.5080257,10.0661701 14.937318,10.1871786 15.3077386,10.4137336 C15.6781593,10.6402885 15.9744382,10.9632661 16.1624817,11.3452114 L11.7435562,11.3452114 C11.5673255,11.3452114 11.3983937,11.4126304 11.2737357,11.5326786 C11.1491737,11.6527268 11.0791616,11.8156082 11.0791616,11.9854043 C11.0791616,12.1552005 11.1491737,12.3180818 11.2737357,12.43813 C11.3983937,12.5582742 11.5673255,12.6256933 11.7435562,12.6256933 L16.394991,12.6256933 C16.315375,13.1574587 16.0400325,13.6439899 15.6191916,13.9965474 C15.1984468,14.3491049 14.6601507,14.5442552 14.1025509,14.5464641 L11.7435562,14.5464641 C11.7126318,14.5434869 11.6815153,14.5434869 11.6505909,14.5464641 C11.6065092,14.5398375 11.5617553,14.5398375 11.5176736,14.5464641 C11.4723434,14.5613501 11.4297983,14.5829588 11.3913829,14.6104258 L11.3116709,14.6552758 C11.2752723,14.6869685 11.2439637,14.7236552 11.2187056,14.7640875 C11.1964246,14.7925149 11.1764486,14.8224789 11.1588736,14.8537875 C11.1529192,14.8920108 11.1529192,14.9308104 11.1588736,14.9690337 C11.1115266,15.0328994 11.0838675,15.1083857 11.0791616,15.1866571 C11.0759923,15.216525 11.0759923,15.2464891 11.0791616,15.2763571 C11.0722468,15.3188061 11.0722468,15.3619274 11.0791616,15.4043764 C11.0945277,15.448074 11.1170008,15.4890824 11.1455242,15.5260573 C11.1455242,15.5260573 11.1455242,15.5772458 11.1921029,15.6028881 L15.179047,20.0846227 C15.2935249,20.2136985 15.4565984,20.2936026 15.6323489,20.3068559 C15.8080034,20.3200132 15.9820252,20.2654633 16.115903,20.155115 C16.2498767,20.0446707 16.332854,19.8875517 16.3464915,19.7183317 C16.360225,19.5490158 16.3035623,19.3813325 16.1889883,19.2523527 L13.1922016,15.826946 L14.0693216,15.826946 C14.9837046,15.8305955 15.8662988,15.5038724 16.5427943,14.9112185 C17.2193858,14.3185647 17.640899,13.5031014 17.7239723,12.6256933 L19.0529537,12.6256933 C19.2291844,12.6256933 19.3982122,12.5582742 19.5227742,12.43813 C19.6474323,12.3180818 19.7174444,12.1552005 19.7174444,11.9854043 C19.7174444,11.8156082 19.6474323,11.6527268 19.5227742,11.5326786 C19.3982122,11.4126304 19.2291844,11.3452114 19.0529537,11.3452114 Z" id="Path"></path>
        </g>
    </g>
</svg>