<svg width="71" height="71" viewBox="0 0 71 71" fill="none" xmlns="http://www.w3.org/2000/svg">
<g filter="url(#filter0_d)">
<circle cx="35.5" cy="33.5" r="27.5" fill="white"/>
</g>
<path d="M48.5821 31.3869H47.5417V31.3333H35.9167V36.5H43.2165C42.1515 39.5076 39.2899 41.6667 35.9167 41.6667C31.6367 41.6667 28.1667 38.1966 28.1667 33.9167C28.1667 29.6367 31.6367 26.1667 35.9167 26.1667C37.8923 26.1667 39.6896 26.912 41.0581 28.1294L44.7116 24.4759C42.4047 22.3259 39.3189 21 35.9167 21C28.7834 21 23 26.7834 23 33.9167C23 41.0499 28.7834 46.8333 35.9167 46.8333C43.0499 46.8333 48.8333 41.0499 48.8333 33.9167C48.8333 33.0506 48.7442 32.2052 48.5821 31.3869Z" fill="#FFC107"/>
<path d="M24.4893 27.9046L28.733 31.0169C29.8813 28.1739 32.6623 26.1667 35.9166 26.1667C37.8922 26.1667 39.6896 26.912 41.0581 28.1294L44.7116 24.4759C42.4047 22.3259 39.3189 21 35.9166 21C30.9553 21 26.6528 23.801 24.4893 27.9046Z" fill="#FF3D00"/>
<path d="M35.9165 46.8336C39.2529 46.8336 42.2845 45.5568 44.5765 43.4804L40.5788 40.0976C39.2384 41.1169 37.6005 41.6683 35.9165 41.6669C32.5569 41.6669 29.7043 39.5247 28.6296 36.5352L24.4175 39.7805C26.5552 43.9635 30.8965 46.8336 35.9165 46.8336Z" fill="#4CAF50"/>
<path d="M48.5824 31.3871H47.542V31.3335H35.917V36.5002H43.2168C42.7074 37.9316 41.7898 39.1824 40.5773 40.0981L40.5793 40.0968L44.577 43.4797C44.2941 43.7367 48.8337 40.3752 48.8337 33.9168C48.8337 33.0508 48.7445 32.2054 48.5824 31.3871Z" fill="#1976D2"/>
<defs>
<filter id="filter0_d" x="0" y="0" width="71" height="71" filterUnits="userSpaceOnUse" color-interpolation-filters="sRGB">
<feFlood flood-opacity="0" result="BackgroundImageFix"/>
<feColorMatrix in="SourceAlpha" type="matrix" values="0 0 0 0 0 0 0 0 0 0 0 0 0 0 0 0 0 0 127 0" result="hardAlpha"/>
<feOffset dy="2"/>
<feGaussianBlur stdDeviation="4"/>
<feColorMatrix type="matrix" values="0 0 0 0 0 0 0 0 0 0 0 0 0 0 0 0 0 0 0.25 0"/>
<feBlend mode="normal" in2="BackgroundImageFix" result="effect1_dropShadow"/>
<feBlend mode="normal" in="SourceGraphic" in2="effect1_dropShadow" result="shape"/>
</filter>
</defs>
</svg>
