<svg width="13" height="13" viewBox="0 0 13 13" fill="none" xmlns="http://www.w3.org/2000/svg">
<path d="M11.4661 4.33398C11.0442 3.3679 10.3497 2.54586 9.46761 1.96859C8.58554 1.39131 7.55423 1.08389 6.50006 1.08398C3.69152 1.08398 1.38131 3.22194 1.11047 5.95898" stroke="black" stroke-linecap="round" stroke-linejoin="round"/>
<path d="M9.20837 4.33333H11.5917C11.6344 4.33333 11.6766 4.32493 11.7161 4.30859C11.7555 4.29226 11.7913 4.26832 11.8215 4.23814C11.8517 4.20796 11.8756 4.17214 11.892 4.13271C11.9083 4.09327 11.9167 4.05101 11.9167 4.00833V1.625" stroke="black" stroke-linecap="round" stroke-linejoin="round"/>
<path d="M1.56055 8.66797C2.39688 10.5811 4.30571 11.918 6.52655 11.918C9.33563 11.918 11.6453 9.78001 11.9167 7.04297" stroke="black" stroke-linecap="round" stroke-linejoin="round"/>
<path d="M3.81881 8.66797H1.43547C1.34928 8.66797 1.26661 8.70221 1.20566 8.76316C1.14471 8.82411 1.11047 8.90677 1.11047 8.99297V11.3763" stroke="black" stroke-linecap="round" stroke-linejoin="round"/>
</svg>
