<?xml version="1.0" encoding="UTF-8"?>
<svg width="29px" height="19px" viewBox="0 0 29 19" version="1.1" xmlns="http://www.w3.org/2000/svg" xmlns:xlink="http://www.w3.org/1999/xlink">
    <title>hide-pass</title>
    <g id="Page-1" stroke="none" stroke-width="1" fill="none" fill-rule="evenodd">
        <g id="hide-pass" transform="translate(0.000000, 1.000000)">
            <path d="M18.1963,8.38609 C18.1963,10.6105 16.3142,12.4137 13.9924,12.4137 C11.6706,12.4137 9.78847,10.6105 9.78847,8.38609 C9.78847,6.16168 11.6706,4.35848 13.9924,4.35848 C16.3142,4.35848 18.1963,6.1617 18.1963,8.38609 Z M14,0 C11.5961,0.0106633 9.10434,0.595887 6.74557,1.71633 C4.99422,2.58251 3.28743,3.80457 1.80586,5.31295 C1.07819,6.08293 0.150057,7.19784 0,8.3874 C0.0177333,9.41782 1.12303,10.6897 1.80586,11.4619 C3.1952,12.911 4.85753,14.099 6.74557,15.0594 C8.94523,16.1269 11.3799,16.7415 14,16.7757 C16.4062,16.7649 18.8974,16.1729 21.2535,15.0594 C23.0049,14.1932 24.7125,12.9703 26.1941,11.4619 C26.9218,10.6919 27.8499,9.57696 28,8.3874 C27.9823,7.35698 26.877,6.08508 26.1941,5.31291 C24.8048,3.86377 23.1416,2.67673 21.2535,1.71628 C19.055,0.649577 16.6143,0.0391767 14,0 Z M13.9982,2.08245 C17.641,2.08245 20.594,4.90565 20.594,8.38831 C20.594,11.871 17.641,14.6941 13.9982,14.6941 C10.3555,14.6941 7.40248,11.8709 7.40248,8.38831 C7.40248,4.90565 10.3555,2.08245 13.9982,2.08245 Z" id="Shape" fill="#A7A5A5" fill-rule="nonzero"></path>
            <line x1="0.750139" y1="16.5669" x2="27.6162852" y2="1.06718736" id="Path" stroke="#A7A5A5" stroke-width="3" transform="translate(14.183212, 8.817049) rotate(0.000000) translate(-14.183212, -8.817049) "></line>
        </g>
    </g>
</svg>