<svg width="18" height="18" viewBox="0 0 18 18" fill="none" xmlns="http://www.w3.org/2000/svg">
<path d="M8.75 0C3.91797 0 0 3.91797 0 8.75C0 13.582 3.91797 17.5 8.75 17.5C13.582 17.5 17.5 13.582 17.5 8.75C17.5 3.91797 13.582 0 8.75 0ZM8.75 13.8281C8.31836 13.8281 7.96875 13.4785 7.96875 13.0469C7.96875 12.6152 8.31836 12.2656 8.75 12.2656C9.18164 12.2656 9.53125 12.6152 9.53125 13.0469C9.53125 13.4785 9.18164 13.8281 8.75 13.8281ZM9.97852 9.54102C9.80164 9.60932 9.64944 9.72934 9.54179 9.88542C9.43413 10.0415 9.37601 10.2264 9.375 10.416V10.8594C9.375 10.9453 9.30469 11.0156 9.21875 11.0156H8.28125C8.19531 11.0156 8.125 10.9453 8.125 10.8594V10.4395C8.125 9.98828 8.25586 9.54297 8.51367 9.17188C8.76562 8.80859 9.11719 8.53125 9.53125 8.37305C10.1953 8.11719 10.625 7.56055 10.625 6.95312C10.625 6.0918 9.7832 5.39062 8.75 5.39062C7.7168 5.39062 6.875 6.0918 6.875 6.95312V7.10156C6.875 7.1875 6.80469 7.25781 6.71875 7.25781H5.78125C5.69531 7.25781 5.625 7.1875 5.625 7.10156V6.95312C5.625 6.18555 5.96094 5.46875 6.57031 4.93555C7.15625 4.42188 7.92969 4.14062 8.75 4.14062C9.57031 4.14062 10.3438 4.42383 10.9297 4.93555C11.5391 5.46875 11.875 6.18555 11.875 6.95312C11.875 8.08203 11.1309 9.09766 9.97852 9.54102Z" fill="white"/>
</svg>
