<?xml version="1.0" encoding="UTF-8"?>
<svg width="30px" height="60px" viewBox="0 0 30 60" version="1.1" xmlns="http://www.w3.org/2000/svg" xmlns:xlink="http://www.w3.org/1999/xlink">
    <title>Artboard</title>
    <g id="Artboard" stroke="none" stroke-width="1" fill="none" fill-rule="evenodd">
        <g id="how-to-play" fill="#FFFFF0" fill-rule="nonzero">
            <path d="M15,0 C6.71651429,0 0,6.71651429 0,15 C0,23.2834286 6.71651429,30 15,30 C23.2834286,30 30,23.2834286 30,15 C30,6.71651429 23.2834286,0 15,0 Z M15,23.7054286 C14.2600429,23.7054286 13.6607143,23.106 13.6607143,22.366 C13.6607143,21.6261429 14.2600429,21.0268571 15,21.0268571 C15.74,21.0268571 16.3392857,21.6261429 16.3392857,22.366 C16.3392857,23.106 15.74,23.7054286 15,23.7054286 Z M17.106,16.356 C16.8028571,16.4731429 16.5418571,16.6788571 16.3572857,16.9464286 C16.1728571,17.214 16.0731429,17.531 16.0714286,17.856 L16.0714286,18.616 C16.0714286,18.7634286 15.9508571,18.884 15.8035714,18.884 L14.1964286,18.884 C14.0491,18.884 13.9285714,18.7634286 13.9285714,18.616 L13.9285714,17.8961429 C13.9285714,17.1227143 14.1529,16.3594286 14.5948571,15.7231429 C15.0267143,15.1004286 15.6294286,14.625 16.3392857,14.3538571 C17.4777143,13.9151857 18.2142857,12.9609429 18.2142857,11.9196429 C18.2142857,10.4430857 16.7711429,9.24107143 15,9.24107143 C13.2288,9.24107143 11.7857143,10.4430857 11.7857143,11.9196429 L11.7857143,12.1741143 C11.7857143,12.3214286 11.6651857,12.4419714 11.5178571,12.4419714 L9.91071429,12.4419714 C9.76338571,12.4419714 9.64285714,12.3214286 9.64285714,12.1741143 L9.64285714,11.9196429 C9.64285714,10.6038 10.2187429,9.375 11.2633857,8.46094286 C12.2678571,7.58035714 13.5937429,7.09821429 15,7.09821429 C16.4062857,7.09821429 17.7321429,7.5837 18.7365714,8.46094286 C19.7812857,9.375 20.3571429,10.6038 20.3571429,11.9196429 C20.3571429,13.8549143 19.0814286,15.596 17.106,16.356 Z" id="Shape"></path>
        </g>
        <g id="how-to-play-copy" transform="translate(0.000000, 30.000000)" fill="#FBC407" fill-rule="nonzero">
            <path d="M15,0 C6.71651429,0 0,6.71651429 0,15 C0,23.2834286 6.71651429,30 15,30 C23.2834286,30 30,23.2834286 30,15 C30,6.71651429 23.2834286,0 15,0 Z M15,23.7054286 C14.2600429,23.7054286 13.6607143,23.106 13.6607143,22.366 C13.6607143,21.6261429 14.2600429,21.0268571 15,21.0268571 C15.74,21.0268571 16.3392857,21.6261429 16.3392857,22.366 C16.3392857,23.106 15.74,23.7054286 15,23.7054286 Z M17.106,16.356 C16.8028571,16.4731429 16.5418571,16.6788571 16.3572857,16.9464286 C16.1728571,17.214 16.0731429,17.531 16.0714286,17.856 L16.0714286,18.616 C16.0714286,18.7634286 15.9508571,18.884 15.8035714,18.884 L14.1964286,18.884 C14.0491,18.884 13.9285714,18.7634286 13.9285714,18.616 L13.9285714,17.8961429 C13.9285714,17.1227143 14.1529,16.3594286 14.5948571,15.7231429 C15.0267143,15.1004286 15.6294286,14.625 16.3392857,14.3538571 C17.4777143,13.9151857 18.2142857,12.9609429 18.2142857,11.9196429 C18.2142857,10.4430857 16.7711429,9.24107143 15,9.24107143 C13.2288,9.24107143 11.7857143,10.4430857 11.7857143,11.9196429 L11.7857143,12.1741143 C11.7857143,12.3214286 11.6651857,12.4419714 11.5178571,12.4419714 L9.91071429,12.4419714 C9.76338571,12.4419714 9.64285714,12.3214286 9.64285714,12.1741143 L9.64285714,11.9196429 C9.64285714,10.6038 10.2187429,9.375 11.2633857,8.46094286 C12.2678571,7.58035714 13.5937429,7.09821429 15,7.09821429 C16.4062857,7.09821429 17.7321429,7.5837 18.7365714,8.46094286 C19.7812857,9.375 20.3571429,10.6038 20.3571429,11.9196429 C20.3571429,13.8549143 19.0814286,15.596 17.106,16.356 Z" id="Shape"></path>
        </g>
    </g>
</svg>