<?xml version="1.0" encoding="UTF-8"?>
<svg width="40px" height="40px" viewBox="0 0 40 40" version="1.1" xmlns="http://www.w3.org/2000/svg" xmlns:xlink="http://www.w3.org/1999/xlink">
    <title>info-icon</title>
    <g id="Page-1" stroke="none" stroke-width="1" fill="none" fill-rule="evenodd">
        <g id="info-icon" fill="#242424" fill-rule="nonzero">
            <path d="M19.5833,0 C8.78508,0 0,8.785088 0,19.583308 C0,30.381608 8.78508,39.166708 19.5833,39.166708 C30.3816,39.166708 39.1667,30.381608 39.1667,19.583308 C39.1667,8.785088 30.3816,0 19.5833,0 Z M19.5833,35.250008 C10.9451,35.250008 3.91667,28.221508 3.91667,19.583308 C3.91667,10.945108 10.9451,3.916668 19.5833,3.916668 C28.2215,3.916668 35.25,10.945108 35.25,19.583308 C35.25,28.221508 28.2215,35.250008 19.5833,35.250008 Z" id="Shape"></path>
            <path d="M17.625,17.624308 L21.5417,17.624308 L21.5417,29.374308 L17.625,29.374308 L17.625,17.624308 Z M17.625,9.791008 L21.5417,9.791008 L21.5417,13.707708 L17.625,13.707708 L17.625,9.791008 Z" id="Shape"></path>
        </g>
    </g>
</svg>