<?xml version="1.0" encoding="UTF-8"?>
<svg width="30px" height="60px" viewBox="0 0 30 60" version="1.1" xmlns="http://www.w3.org/2000/svg" xmlns:xlink="http://www.w3.org/1999/xlink">
    <title>Artboard</title>
    <g id="Artboard" stroke="none" stroke-width="1" fill="none" fill-rule="evenodd">
        <g id="invite" transform="translate(0.000000, 4.000000)" fill="#FFFFF0" fill-rule="nonzero">
            <path d="M9,10.875 C11.9015625,10.875 14.25,8.44268714 14.25,5.4375 C14.25,2.43231286 11.9015625,0 9,0 C6.0984375,0 3.75,2.43231286 3.75,5.4375 C3.75,8.44268714 6.0984375,10.875 9,10.875 Z M12.6,12.4285714 L12.2109375,12.4285714 C11.2359375,12.914059 10.153125,13.2053571 9,13.2053571 C7.846875,13.2053571 6.76875,12.914059 5.7890625,12.4285714 L5.4,12.4285714 C2.41875,12.4285714 0,14.9337571 0,18.0214286 L0,19.4196429 C0,20.7061381 1.0078125,21.75 2.25,21.75 L15.75,21.75 C16.99225,21.75 18,20.7061381 18,19.4196429 L18,18.0214286 C18,14.9337571 15.58125,12.4285714 12.6,12.4285714 Z M22.5,10.875 C24.984375,10.875 27,8.78738667 27,6.21428571 C27,3.64118476 24.984375,1.55357143 22.5,1.55357143 C20.015625,1.55357143 18,3.64118476 18,6.21428571 C18,8.78738667 20.015625,10.875 22.5,10.875 Z M24.75,12.4285714 L24.571875,12.4285714 C23.920375,12.6616071 23.23125,12.8169643 22.5,12.8169643 C21.76875,12.8169643 21.07975,12.6616071 20.428125,12.4285714 L20.25,12.4285714 C19.29375,12.4285714 18.4125,12.7150086 17.639125,13.1762329 C18.782875,14.4530476 19.5,16.1474762 19.5,18.0214286 L19.5,19.8857143 C19.5,19.9924619 19.476625,20.0945143 19.471875,20.1964286 L27.75,20.1964286 C28.99225,20.1964286 30,19.1525667 30,17.8660714 C30,14.8608429 27.651625,12.4285714 24.75,12.4285714 L24.75,12.4285714 Z" id="Shape"></path>
        </g>
        <g id="invite-copy" transform="translate(0.000000, 34.000000)" fill="#FBC407" fill-rule="nonzero">
            <path d="M9,10.875 C11.9015625,10.875 14.25,8.44268714 14.25,5.4375 C14.25,2.43231286 11.9015625,0 9,0 C6.0984375,0 3.75,2.43231286 3.75,5.4375 C3.75,8.44268714 6.0984375,10.875 9,10.875 Z M12.6,12.4285714 L12.2109375,12.4285714 C11.2359375,12.914059 10.153125,13.2053571 9,13.2053571 C7.846875,13.2053571 6.76875,12.914059 5.7890625,12.4285714 L5.4,12.4285714 C2.41875,12.4285714 0,14.9337571 0,18.0214286 L0,19.4196429 C0,20.7061381 1.0078125,21.75 2.25,21.75 L15.75,21.75 C16.99225,21.75 18,20.7061381 18,19.4196429 L18,18.0214286 C18,14.9337571 15.58125,12.4285714 12.6,12.4285714 Z M22.5,10.875 C24.984375,10.875 27,8.78738667 27,6.21428571 C27,3.64118476 24.984375,1.55357143 22.5,1.55357143 C20.015625,1.55357143 18,3.64118476 18,6.21428571 C18,8.78738667 20.015625,10.875 22.5,10.875 Z M24.75,12.4285714 L24.571875,12.4285714 C23.920375,12.6616071 23.23125,12.8169643 22.5,12.8169643 C21.76875,12.8169643 21.07975,12.6616071 20.428125,12.4285714 L20.25,12.4285714 C19.29375,12.4285714 18.4125,12.7150086 17.639125,13.1762329 C18.782875,14.4530476 19.5,16.1474762 19.5,18.0214286 L19.5,19.8857143 C19.5,19.9924619 19.476625,20.0945143 19.471875,20.1964286 L27.75,20.1964286 C28.99225,20.1964286 30,19.1525667 30,17.8660714 C30,14.8608429 27.651625,12.4285714 24.75,12.4285714 L24.75,12.4285714 Z" id="Shape"></path>
        </g>
    </g>
</svg>