<?xml version="1.0" encoding="UTF-8"?>
<svg width="31px" height="66px" viewBox="0 0 31 66" version="1.1" xmlns="http://www.w3.org/2000/svg" xmlns:xlink="http://www.w3.org/1999/xlink">
    <title>Artboard</title>
    <g id="Artboard" stroke="none" stroke-width="1" fill="none" fill-rule="evenodd">
        <g id="log-out-icon" transform="translate(1.000000, 0.000000)" fill="#FFFFFF" fill-rule="nonzero">
            <path d="M8.45813058,4.6215 C8.84782058,4.4463 9.29080058,4.43163 9.69130058,4.58066 C10.0917006,4.7297 10.4173006,5.03044 10.5976006,5.41779 C10.7780006,5.80514 10.7985006,6.24793 10.6547006,6.65029 C10.5110006,7.05265 10.2146006,7.38221 9.82960058,7.56763 C7.48060058,8.65858 5.57443058,10.5188 4.42652058,12.8405 C3.27860058,15.1623 2.95776058,17.8063 3.51706058,20.3352 C4.07636058,22.8641 5.48229058,25.1263 7.50221058,26.7474 C9.52210058,28.3685 12.0350006,29.2514 14.6250006,29.25 C17.2117006,29.2493 19.7208006,28.3669 21.7384006,26.7482 C23.7560006,25.1295 25.1614006,22.8713 25.7228006,20.3463 C26.2842006,17.8213 25.9680006,15.1803 24.8263006,12.8592 C23.6847006,10.5381 21.7858006,8.67561 19.4431006,7.579 C19.2498006,7.48852 19.0762006,7.36084 18.9322006,7.20326 C18.7882006,7.04568 18.6766006,6.86128 18.6039006,6.66059 C18.4570006,6.25528 18.4771006,5.80822 18.6599006,5.41775 C18.8426006,5.02729 19.1730006,4.7254 19.5783006,4.57852 C19.9836006,4.43163 20.4307006,4.45177 20.8211006,4.6345 C23.3404006,5.81194 25.4716006,7.68354 26.9646006,10.0296 C28.4575006,12.3757 29.2504006,15.099 29.2500007,17.8799 C29.2500007,25.9561 22.7013006,32.5 14.6250006,32.5 C6.54875058,32.5 2.89772435e-07,25.9545 2.89772435e-07,17.8815 C-0.000554420152,15.095 0.79531058,12.3664 2.29384058,10.0171 C3.79236058,7.66781 5.93112058,5.79576 8.45813058,4.6215 Z M14.6250006,0 C15.0230006,0 15.4072006,0.146179 15.7046006,0.410662 C16.0020006,0.675146 16.1921006,1.03959 16.2386006,1.43487 L16.2500006,1.625 L16.2500006,13 C16.2500006,13.4143 16.0917006,13.813 15.8075006,14.1145 C15.5233006,14.4159 15.1346006,14.5975 14.7210006,14.622 C14.3074006,14.6465 13.9001006,14.512 13.5823006,14.2462 C13.2646006,13.9804 13.0603006,13.6032 13.0114006,13.1917 L13.0000006,13 L13.0000006,1.625 C13.0000006,1.19402 13.1712006,0.7807 13.4760006,0.475951 C13.7807006,0.171205 14.1940006,0 14.6250006,0 Z" id="Shape"></path>
        </g>
        <g id="log-out-icon-copy" transform="translate(1.000000, 33.000000)" fill="#FBC407" fill-rule="nonzero">
            <path d="M8.45813058,4.6215 C8.84782058,4.4463 9.29080058,4.43163 9.69130058,4.58066 C10.0917006,4.7297 10.4173006,5.03044 10.5976006,5.41779 C10.7780006,5.80514 10.7985006,6.24793 10.6547006,6.65029 C10.5110006,7.05265 10.2146006,7.38221 9.82960058,7.56763 C7.48060058,8.65858 5.57443058,10.5188 4.42652058,12.8405 C3.27860058,15.1623 2.95776058,17.8063 3.51706058,20.3352 C4.07636058,22.8641 5.48229058,25.1263 7.50221058,26.7474 C9.52210058,28.3685 12.0350006,29.2514 14.6250006,29.25 C17.2117006,29.2493 19.7208006,28.3669 21.7384006,26.7482 C23.7560006,25.1295 25.1614006,22.8713 25.7228006,20.3463 C26.2842006,17.8213 25.9680006,15.1803 24.8263006,12.8592 C23.6847006,10.5381 21.7858006,8.67561 19.4431006,7.579 C19.2498006,7.48852 19.0762006,7.36084 18.9322006,7.20326 C18.7882006,7.04568 18.6766006,6.86128 18.6039006,6.66059 C18.4570006,6.25528 18.4771006,5.80822 18.6599006,5.41775 C18.8426006,5.02729 19.1730006,4.7254 19.5783006,4.57852 C19.9836006,4.43163 20.4307006,4.45177 20.8211006,4.6345 C23.3404006,5.81194 25.4716006,7.68354 26.9646006,10.0296 C28.4575006,12.3757 29.2504006,15.099 29.2500007,17.8799 C29.2500007,25.9561 22.7013006,32.5 14.6250006,32.5 C6.54875058,32.5 2.89772435e-07,25.9545 2.89772435e-07,17.8815 C-0.000554420152,15.095 0.79531058,12.3664 2.29384058,10.0171 C3.79236058,7.66781 5.93112058,5.79576 8.45813058,4.6215 Z M14.6250006,0 C15.0230006,0 15.4072006,0.146179 15.7046006,0.410662 C16.0020006,0.675146 16.1921006,1.03959 16.2386006,1.43487 L16.2500006,1.625 L16.2500006,13 C16.2500006,13.4143 16.0917006,13.813 15.8075006,14.1145 C15.5233006,14.4159 15.1346006,14.5975 14.7210006,14.622 C14.3074006,14.6465 13.9001006,14.512 13.5823006,14.2462 C13.2646006,13.9804 13.0603006,13.6032 13.0114006,13.1917 L13.0000006,13 L13.0000006,1.625 C13.0000006,1.19402 13.1712006,0.7807 13.4760006,0.475951 C13.7807006,0.171205 14.1940006,0 14.6250006,0 Z" id="Shape"></path>
        </g>
    </g>
</svg>