<svg width="34" height="28" viewBox="0 0 34 28" fill="none" xmlns="http://www.w3.org/2000/svg">
<path d="M33.6664 7.46742V22.4637C33.6664 23.8588 33.1122 25.1968 32.1257 26.1834C31.1392 27.1699 29.8012 27.7241 28.406 27.7241H5.26038C3.86524 27.7241 2.52724 27.1699 1.54073 26.1834C0.554217 25.1968 0 23.8588 0 22.4637V7.46742L16.2988 17.0581C16.4607 17.1536 16.6452 17.204 16.8332 17.204C17.0212 17.204 17.2057 17.1536 17.3677 17.0581L33.6664 7.46742ZM28.406 0.370117C29.7004 0.369914 30.9494 0.846932 31.9141 1.70991C32.8788 2.5729 33.4914 3.76125 33.6349 5.04765L16.8332 14.9308L0.0315625 5.04765C0.174978 3.76125 0.787634 2.5729 1.75233 1.70991C2.71702 0.846932 3.96602 0.369914 5.26038 0.370117H28.406Z" fill="white"/>
</svg>
