<?xml version="1.0" encoding="UTF-8"?>
<svg width="30px" height="60px" viewBox="0 0 30 60" version="1.1" xmlns="http://www.w3.org/2000/svg" xmlns:xlink="http://www.w3.org/1999/xlink">
    <title>Artboard</title>
    <g id="Artboard" stroke="none" stroke-width="1" fill="none" fill-rule="evenodd">
        <g id="my-profile" transform="translate(0.000000, 0.000000)" fill="#FFFFF0" fill-rule="nonzero">
            <path d="M26.5356781,24.5676744 C28.0754765,22.7164763 29.1464754,20.5220786 29.6579749,18.1699811 C30.1694743,15.8177835 30.1064744,13.3771861 29.4742751,11.0544885 C28.8420757,8.73188089 27.659277,6.59552311 26.0260786,4.82619495 C24.3927803,3.05686679 22.3570825,1.70661819 20.0910848,0.889663043 C17.8250872,0.0727114931 15.3954897,-0.186905837 13.0077922,0.132774831 C10.6201947,0.452454498 8.34469704,1.34202857 6.37388909,2.72623713 C4.40309114,4.11044569 2.79494282,5.94857378 1.68548397,8.08513156 C0.576028125,10.2216893 -0.00209855396,12.5937869 5.7238553e-06,15.0007844 C0.000821171004,18.4998807 1.23490444,21.8869772 3.4857121,24.5676744 L3.46427212,24.5858744 C3.53932204,24.6758743 3.62510195,24.7529742 3.70229187,24.8418741 C3.79879177,24.952274 3.90279166,25.0561739 4.00251156,25.1632738 C4.30272125,25.4889735 4.61151093,25.8017731 4.93532059,26.0953728 C5.03396049,26.1852727 5.13582038,26.2688726 5.23553028,26.3545726 C5.57862992,26.6502722 5.93138955,26.930972 6.29699917,27.1923717 C6.34417912,27.2244716 6.38706908,27.2662716 6.43423903,27.2994716 L6.43423903,27.2866716 C8.94542642,29.0523697 11.9410933,29.9999688 15.0117901,29.9999688 C18.0824869,29.9999688 21.0781838,29.0523697 23.5893812,27.2866716 L23.5893812,27.2994716 C23.6364811,27.2662716 23.6782811,27.2244716 23.726581,27.1923717 C24.0910807,26.929872 24.4449803,26.6502722 24.7880799,26.3545726 C24.8877798,26.2688726 24.9895797,26.1842727 25.0882796,26.0953728 C25.4120793,25.8006731 25.720879,25.4889735 26.0210787,25.1632738 C26.1207786,25.0561739 26.2236784,24.952274 26.3212783,24.8418741 C26.3973783,24.7529742 26.4842782,24.6758743 26.5592781,24.5847744 L26.5356781,24.5676744 Z M15.0106901,6.43030328 C15.9649891,6.43030328 16.8977881,6.71304299 17.6912873,7.24277243 C18.4846865,7.77250188 19.1030859,8.5254211 19.4682855,9.40633018 C19.8334851,10.2871893 19.929085,11.2565883 19.7428852,12.1916873 C19.5566854,13.1268863 19.0971859,13.9858854 18.4223866,14.6600847 C17.7476873,15.334284 16.8878882,15.7934835 15.9519891,15.9794833 C15.0160901,16.1654832 14.0459911,16.0700833 13.164292,15.7051836 C12.2826929,15.340284 11.5291937,14.7223847 10.9989943,13.9295855 C10.4687948,13.1367863 10.1858951,12.2046873 10.1858951,11.2511883 C10.1858951,9.97262959 10.6941946,8.74641087 11.5989937,7.84231181 C12.5038927,6.93821275 13.7310914,6.43030328 15.0106901,6.43030328 Z M6.44067902,24.5676744 C6.459279,23.1609759 7.03139841,21.8181773 8.03326737,20.8297783 C9.03513632,19.8413793 10.3861949,19.2867799 11.7940935,19.2860799 L18.2272868,19.2860799 C19.6352853,19.2867799 20.9862839,19.8413793 21.9881828,20.8297783 C22.9900818,21.8181773 23.5621812,23.1609759 23.5807812,24.5676744 C21.2292836,26.6848722 18.1760868,27.856671 15.0106901,27.856671 C11.8452934,27.856671 8.79216658,26.6848722 6.44067902,24.5676744 Z" id="Shape"></path>
        </g>
        <g id="my-profile-copy" transform="translate(0.000000, 30.000000)" fill="#FBC407" fill-rule="nonzero">
            <path d="M26.5356781,24.5676744 C28.0754765,22.7164763 29.1464754,20.5220786 29.6579749,18.1699811 C30.1694743,15.8177835 30.1064744,13.3771861 29.4742751,11.0544885 C28.8420757,8.73188089 27.659277,6.59552311 26.0260786,4.82619495 C24.3927803,3.05686679 22.3570825,1.70661819 20.0910848,0.889663043 C17.8250872,0.0727114931 15.3954897,-0.186905837 13.0077922,0.132774831 C10.6201947,0.452454498 8.34469704,1.34202857 6.37388909,2.72623713 C4.40309114,4.11044569 2.79494282,5.94857378 1.68548397,8.08513156 C0.576028125,10.2216893 -0.00209855396,12.5937869 5.7238553e-06,15.0007844 C0.000821171004,18.4998807 1.23490444,21.8869772 3.4857121,24.5676744 L3.46427212,24.5858744 C3.53932204,24.6758743 3.62510195,24.7529742 3.70229187,24.8418741 C3.79879177,24.952274 3.90279166,25.0561739 4.00251156,25.1632738 C4.30272125,25.4889735 4.61151093,25.8017731 4.93532059,26.0953728 C5.03396049,26.1852727 5.13582038,26.2688726 5.23553028,26.3545726 C5.57862992,26.6502722 5.93138955,26.930972 6.29699917,27.1923717 C6.34417912,27.2244716 6.38706908,27.2662716 6.43423903,27.2994716 L6.43423903,27.2866716 C8.94542642,29.0523697 11.9410933,29.9999688 15.0117901,29.9999688 C18.0824869,29.9999688 21.0781838,29.0523697 23.5893812,27.2866716 L23.5893812,27.2994716 C23.6364811,27.2662716 23.6782811,27.2244716 23.726581,27.1923717 C24.0910807,26.929872 24.4449803,26.6502722 24.7880799,26.3545726 C24.8877798,26.2688726 24.9895797,26.1842727 25.0882796,26.0953728 C25.4120793,25.8006731 25.720879,25.4889735 26.0210787,25.1632738 C26.1207786,25.0561739 26.2236784,24.952274 26.3212783,24.8418741 C26.3973783,24.7529742 26.4842782,24.6758743 26.5592781,24.5847744 L26.5356781,24.5676744 Z M15.0106901,6.43030328 C15.9649891,6.43030328 16.8977881,6.71304299 17.6912873,7.24277243 C18.4846865,7.77250188 19.1030859,8.5254211 19.4682855,9.40633018 C19.8334851,10.2871893 19.929085,11.2565883 19.7428852,12.1916873 C19.5566854,13.1268863 19.0971859,13.9858854 18.4223866,14.6600847 C17.7476873,15.334284 16.8878882,15.7934835 15.9519891,15.9794833 C15.0160901,16.1654832 14.0459911,16.0700833 13.164292,15.7051836 C12.2826929,15.340284 11.5291937,14.7223847 10.9989943,13.9295855 C10.4687948,13.1367863 10.1858951,12.2046873 10.1858951,11.2511883 C10.1858951,9.97262959 10.6941946,8.74641087 11.5989937,7.84231181 C12.5038927,6.93821275 13.7310914,6.43030328 15.0106901,6.43030328 Z M6.44067902,24.5676744 C6.459279,23.1609759 7.03139841,21.8181773 8.03326737,20.8297783 C9.03513632,19.8413793 10.3861949,19.2867799 11.7940935,19.2860799 L18.2272868,19.2860799 C19.6352853,19.2867799 20.9862839,19.8413793 21.9881828,20.8297783 C22.9900818,21.8181773 23.5621812,23.1609759 23.5807812,24.5676744 C21.2292836,26.6848722 18.1760868,27.856671 15.0106901,27.856671 C11.8452934,27.856671 8.79216658,26.6848722 6.44067902,24.5676744 Z" id="Shape"></path>
        </g>
    </g>
</svg>