<?xml version="1.0" encoding="UTF-8"?>
<svg width="30px" height="60px" viewBox="0 0 30 60" version="1.1" xmlns="http://www.w3.org/2000/svg" xmlns:xlink="http://www.w3.org/1999/xlink">
    <title>Artboard</title>
    <g id="Artboard" stroke="none" stroke-width="1" fill="none" fill-rule="evenodd" stroke-linecap="round" stroke-linejoin="round">
        <g id="passbook" stroke="#FFFFF0" stroke-width="2">
            <path d="M27.5,0 L2.5,0 C1.83696,0 1.20108,0.263386667 0.732226667,0.732226667 C0.263386667,1.20108 0,1.83696 0,2.5 L0,27.5 C0,28.1630667 0.263386667,28.7989333 0.732226667,29.2677333 C1.20108,29.7366667 1.83696,30 2.5,30 L27.5,30 C28.1630667,30 28.7989333,29.7366667 29.2677333,29.2677333 C29.7366667,28.7989333 30,28.1630667 30,27.5 L30,2.5 C30,1.83696 29.7366667,1.20108 29.2677333,0.732226667 C28.7989333,0.263386667 28.1630667,0 27.5,0 Z" id="Path"></path>
            <line x1="6.89188" y1="9.66216" x2="23.5585333" y2="9.66216" id="Path"></line>
            <line x1="6.89188" y1="15.5405333" x2="23.1081333" y2="15.5405333" id="Path"></line>
            <line x1="6.89188" y1="22.0270667" x2="23.1081333" y2="22.0270667" id="Path"></line>
        </g>
        <g id="passbook-copy" transform="translate(0.000000, 30.000000)" stroke="#FBC407" stroke-width="2">
            <path d="M27.5,0 L2.5,0 C1.83696,0 1.20108,0.263386667 0.732226667,0.732226667 C0.263386667,1.20108 0,1.83696 0,2.5 L0,27.5 C0,28.1630667 0.263386667,28.7989333 0.732226667,29.2677333 C1.20108,29.7366667 1.83696,30 2.5,30 L27.5,30 C28.1630667,30 28.7989333,29.7366667 29.2677333,29.2677333 C29.7366667,28.7989333 30,28.1630667 30,27.5 L30,2.5 C30,1.83696 29.7366667,1.20108 29.2677333,0.732226667 C28.7989333,0.263386667 28.1630667,0 27.5,0 Z" id="Path"></path>
            <line x1="6.89188" y1="9.66216" x2="23.5585333" y2="9.66216" id="Path"></line>
            <line x1="6.89188" y1="15.5405333" x2="23.1081333" y2="15.5405333" id="Path"></line>
            <line x1="6.89188" y1="22.0270667" x2="23.1081333" y2="22.0270667" id="Path"></line>
        </g>
    </g>
</svg>