<svg width="10" height="10" viewBox="0 0 10 10" fill="none" xmlns="http://www.w3.org/2000/svg">
<path d="M5 0.5C5.14918 0.5 5.29226 0.559263 5.39775 0.664753C5.50324 0.770242 5.5625 0.913316 5.5625 1.0625V4.4375H8.9375C9.08668 4.4375 9.22976 4.49676 9.33525 4.60225C9.44074 4.70774 9.5 4.85082 9.5 5C9.5 5.14918 9.44074 5.29226 9.33525 5.39775C9.22976 5.50324 9.08668 5.5625 8.9375 5.5625H5.5625V8.9375C5.5625 9.08668 5.50324 9.22976 5.39775 9.33525C5.29226 9.44074 5.14918 9.5 5 9.5C4.85082 9.5 4.70774 9.44074 4.60225 9.33525C4.49676 9.22976 4.4375 9.08668 4.4375 8.9375V5.5625H1.0625C0.913316 5.5625 0.770242 5.50324 0.664753 5.39775C0.559263 5.29226 0.5 5.14918 0.5 5C0.5 4.85082 0.559263 4.70774 0.664753 4.60225C0.770242 4.49676 0.913316 4.4375 1.0625 4.4375H4.4375V1.0625C4.4375 0.913316 4.49676 0.770242 4.60225 0.664753C4.70774 0.559263 4.85082 0.5 5 0.5Z" fill="black"/>
</svg>
