<svg width="30" height="30" viewBox="0 0 30 30" fill="none" xmlns="http://www.w3.org/2000/svg">
<path d="M23.6906 23.5352C25.9314 21.2595 27.1874 18.1938 27.1874 15.0001C27.1874 11.8063 25.9314 8.74064 23.6906 6.46494C23.6456 6.40672 23.5934 6.35447 23.5352 6.30944C21.2595 4.06854 18.1938 2.8125 15 2.8125C11.8061 2.8125 8.74043 4.06854 6.46472 6.30944C6.40649 6.35446 6.35423 6.40671 6.30921 6.46494C4.06838 8.74064 2.81239 11.8063 2.81239 15.0001C2.81239 18.1938 4.06838 21.2595 6.30921 23.5352C6.35426 23.5934 6.40656 23.6457 6.46483 23.6907C8.74053 25.9315 11.8062 27.1875 15 27.1875C18.1937 27.1875 21.2594 25.9315 23.5351 23.6907C23.5933 23.6457 23.6455 23.5934 23.6906 23.5352ZM4.73069 15.9376H7.56077C7.72816 17.2713 8.25273 18.535 9.07905 19.5952L7.07866 21.5955C5.73846 19.9924 4.91933 18.0185 4.73069 15.9376ZM7.07878 8.40475L9.07905 10.4049C8.25269 11.4651 7.72807 12.7288 7.56065 14.0626H4.73058C4.91927 11.9816 5.73856 10.0078 7.07878 8.40475ZM25.2693 14.0626H22.4392C22.2719 12.7288 21.7473 11.4651 20.921 10.4049L22.9214 8.40463C24.2615 10.0077 25.0807 11.9816 25.2693 14.0626ZM19.5951 9.07893C18.5349 8.25264 17.2712 7.7281 15.9375 7.56076V4.73068C18.0184 4.9194 19.9922 5.73856 21.5953 7.07877L19.5951 9.07893ZM14.0625 7.56076C12.7287 7.7281 11.465 8.25264 10.4048 9.07893L8.40464 7.07877C10.0077 5.73852 11.9815 4.91931 14.0625 4.73057V7.56076ZM10.4048 20.9212C11.465 21.7475 12.7287 22.272 14.0625 22.4394V25.2694C11.9815 25.0807 10.0077 24.2616 8.40464 22.9214L10.4048 20.9212ZM15.9375 22.4394C17.2712 22.272 18.5349 21.7475 19.5951 20.9212L21.5954 22.9214C19.9923 24.2616 18.0184 25.0808 15.9375 25.2696V22.4394ZM20.921 19.5952C21.7473 18.535 22.2719 17.2713 22.4392 15.9376H25.2693C25.0806 18.0185 24.2615 19.9923 22.9212 21.5954L20.921 19.5952Z" fill="white"/>
</svg>
