<svg width="16" height="20" viewBox="0 0 16 20" fill="none" xmlns="http://www.w3.org/2000/svg">
<path d="M1.05778 3.00974C0.417778 3.30315 0 3.96332 0 4.68768V8.99714C0 14.086 3.41333 18.8447 8 20C12.5867 18.8447 16 14.086 16 8.99714V4.68768C16 3.96332 15.5822 3.30315 14.9422 3.00974L8.72 0.158166C8.25778 -0.0527221 7.73333 -0.0527221 7.28 0.158166L1.05778 3.00974ZM8 5.32951C8.48889 5.32951 8.88889 5.74212 8.88889 6.24642C8.88889 6.75072 8.48889 7.16332 8 7.16332C7.51111 7.16332 7.11111 6.75072 7.11111 6.24642C7.11111 5.74212 7.51111 5.32951 8 5.32951ZM8 8.99714C8.48889 8.99714 8.88889 9.40974 8.88889 9.91404V13.5817C8.88889 14.086 8.48889 14.4986 8 14.4986C7.51111 14.4986 7.11111 14.086 7.11111 13.5817V9.91404C7.11111 9.40974 7.51111 8.99714 8 8.99714Z" fill="white"/>
</svg>
