<?xml version="1.0" encoding="UTF-8"?>
<svg width="13px" height="13px" viewBox="0 0 13 13" version="1.1" xmlns="http://www.w3.org/2000/svg" xmlns:xlink="http://www.w3.org/1999/xlink">
    <title>refresh-icon</title>
    <g id="Page-1" stroke="none" stroke-width="1" fill="none" fill-rule="evenodd" stroke-linecap="round" stroke-linejoin="round">
        <g id="refresh-icon" transform="translate(1.000000, 1.000000)" stroke="#FFFFFF">
            <path d="M10.35555,3.25000002 C9.93375,2.28391002 9.23925,1.46187002 8.35714,0.884600024 C7.47507,0.307330024 6.44376,-9.9975612e-05 5.38958,4.4408921e-16 C2.58104,4.4408921e-16 0.27083,2.13796002 8.8817842e-16,4.87500002" id="Path"></path>
            <path d="M8.09784,3.25032002 L10.48115,3.25032002 C10.52385,3.25032002 10.56615,3.24192002 10.60555,3.22558002 C10.64495,3.20925002 10.68085,3.18531002 10.71095,3.15513002 C10.74115,3.12495002 10.76515,3.08913002 10.78145,3.04970002 C10.79775,3.01026002 10.80615,2.96800002 10.80615,2.92532002 L10.80615,0.541990024" id="Path"></path>
            <path d="M0.45008,7.58301002 C1.28642,9.49619002 3.19525,10.83299 5.41608,10.83299 C8.22517,10.83299 10.53485,8.69505002 10.80625,5.95801002" id="Path"></path>
            <path d="M2.70833,7.58301002 L0.325,7.58301002 C0.23881,7.58301002 0.15614,7.61725002 0.09519,7.67820002 C0.03424,7.73914002 4.4408921e-16,7.82181002 4.4408921e-16,7.90801002 L4.4408921e-16,10.29129" id="Path"></path>
        </g>
    </g>
</svg>