<svg width="28" height="17" viewBox="0 0 28 17" fill="none" xmlns="http://www.w3.org/2000/svg">
<path d="M18.1963 8.38609C18.1963 10.6105 16.3142 12.4137 13.9924 12.4137C11.6706 12.4137 9.78847 10.6105 9.78847 8.38609C9.78847 6.16168 11.6706 4.35848 13.9924 4.35848C16.3142 4.35846 18.1963 6.1617 18.1963 8.38609ZM14 0C11.5961 0.0106633 9.10434 0.595887 6.74557 1.71633C4.99422 2.58251 3.28743 3.80457 1.80586 5.31295C1.07819 6.08293 0.150057 7.19784 0 8.3874C0.0177333 9.41782 1.12303 10.6897 1.80586 11.4619C3.1952 12.911 4.85753 14.099 6.74557 15.0594C8.94523 16.1269 11.3799 16.7415 14 16.7757C16.4062 16.7649 18.8974 16.1729 21.2535 15.0594C23.0049 14.1932 24.7125 12.9703 26.1941 11.4619C26.9218 10.6919 27.8499 9.57696 28 8.3874C27.9823 7.35698 26.877 6.08508 26.1941 5.31291C24.8048 3.86377 23.1416 2.67673 21.2535 1.71628C19.055 0.649577 16.6143 0.0391767 14 0ZM13.9982 2.08245C17.641 2.08245 20.594 4.90565 20.594 8.38831C20.594 11.871 17.641 14.6941 13.9982 14.6941C10.3555 14.6941 7.40248 11.8709 7.40248 8.38831C7.40248 4.90565 10.3555 2.08245 13.9982 2.08245Z" fill="#A7A5A5"/>
</svg>
