<?xml version="1.0" encoding="UTF-8"?>
<svg width="24px" height="46px" viewBox="0 0 24 46" version="1.1" xmlns="http://www.w3.org/2000/svg" xmlns:xlink="http://www.w3.org/1999/xlink">
    <title>Artboard</title>
    <g id="Artboard" stroke="none" stroke-width="1" fill="none" fill-rule="evenodd">
        <g id="star" transform="translate(0.000000, -0.000000)" fill="#000000" fill-rule="nonzero">
            <path d="M23.8993,8.63644 C23.7845,8.28081 23.5735,7.96383 23.2896,7.7206 C23.0057,7.47737 22.6599,7.31736 22.2906,7.2583 L16.4951,6.31744 L13.8085,1.10226 C13.6374,0.770248 13.378,0.491745 13.0589,0.297304 C12.7397,0.102864 12.3731,0 11.9993,0 C11.6255,0 11.2588,0.102864 10.9397,0.297304 C10.6205,0.491745 10.3612,0.770248 10.19,1.10226 L7.50342999,6.31744 L1.70807999,7.2583 C1.33911999,7.31829 0.993820992,7.47864 0.710082992,7.72177 C0.426343992,7.96489 0.215126992,8.28139 0.0996062916,8.63654 C-0.0159143084,8.99169 -0.0312744084,9.37176 0.0552113916,9.73506 C0.141696992,10.0984 0.326686992,10.4308 0.589882992,10.696 L4.72487999,14.86 L3.82987999,20.6566 C3.77244999,21.0258 3.81805999,21.4037 3.96169999,21.7487 C4.10533999,22.0937 4.34143999,22.3924 4.64403999,22.612 C4.94662999,22.8316 5.30399999,22.9636 5.67682999,22.9935 C6.04966999,23.0234 6.42351999,22.9499 6.75727999,22.7813 L11.9993,20.1396 L17.2414,22.7813 C17.5752,22.9496 17.949,23.0227 18.3217,22.9927 C18.6944,22.9627 19.0516,22.8307 19.354,22.6112 C19.6565,22.3916 19.8926,22.0931 20.0363,21.7483 C20.1801,21.4035 20.2259,21.0258 20.1688,20.6566 L19.2738,14.86 L23.4088,10.696 C23.6729,10.4313 23.8584,10.0989 23.945,9.73536 C24.0315,9.37186 24.0157,8.99152 23.8993,8.63644 Z M22.2728,9.57045 L17.5693,14.3069 L18.5875,20.9004 C18.6001,20.9794 18.5906,21.0603 18.56,21.1342 C18.5294,21.2081 18.4789,21.2721 18.4142,21.3191 C18.3494,21.3661 18.2729,21.3943 18.1931,21.4005 C18.1133,21.4067 18.0333,21.3907 17.962,21.3543 L11.9993,18.3494 L6.03647999,21.3544 C5.96519999,21.3908 5.88522999,21.4068 5.80541999,21.4006 C5.72561999,21.3944 5.64908999,21.3662 5.58432999,21.3192 C5.51956999,21.2722 5.46909999,21.2082 5.43850999,21.1343 C5.40791999,21.0604 5.39840999,20.9795 5.41102999,20.9005 L6.42927999,14.3069 L1.72582999,9.5704 C1.66965999,9.51371 1.63019999,9.44268 1.61175999,9.36508 C1.59331999,9.28747 1.59660999,9.2063 1.62127999,9.13044 C1.64595999,9.05458 1.69104999,8.98697 1.75162999,8.93502 C1.81220999,8.88306 1.88593999,8.84876 1.96472999,8.83588 L8.55677999,7.76571 L11.6127,1.83363 C11.6493,1.76267 11.7047,1.70315 11.7729,1.66158 C11.8411,1.62002 11.9194,1.59804 11.9993,1.59804 C12.0792,1.59804 12.1575,1.62002 12.2257,1.66158 C12.2939,1.70315 12.3493,1.76267 12.3858,1.83363 L15.4418,7.76571 L22.0338,8.83588 C22.1126,8.84876 22.1863,8.88306 22.2469,8.93502 C22.3075,8.98697 22.3526,9.05458 22.3773,9.13044 C22.4019,9.2063 22.4052,9.28747 22.3868,9.36508 C22.3684,9.44268 22.3289,9.51371 22.2727,9.5704 L22.2728,9.57045 Z" id="Shape"></path>
        </g>
        <path d="M23.8993,31.63644 C23.7845,31.28081 23.5735,30.96383 23.2896,30.7206 C23.0057,30.47737 22.6599,30.31736 22.2906,30.2583 L16.4951,29.31744 L13.8085,24.10226 C13.6374,23.770248 13.378,23.491745 13.0589,23.297304 C12.7397,23.102864 12.3731,23 11.9993,23 C11.6255,23 11.2588,23.102864 10.9397,23.297304 C10.6205,23.491745 10.3612,23.770248 10.19,24.10226 L7.50342999,29.31744 L1.70807999,30.2583 C1.33911999,30.31829 0.993820992,30.47864 0.710082992,30.72177 C0.426343992,30.96489 0.215126992,31.28139 0.0996062916,31.63654 C-0.0159143084,31.99169 -0.0312744084,32.37176 0.0552113916,32.73506 C0.141696992,33.0984 0.326686992,33.4308 0.589882992,33.696 L4.72487999,37.86 L3.82987999,43.6566 C3.77244999,44.0258 3.81805999,44.4037 3.96169999,44.7487 C4.10533999,45.0937 4.34143999,45.3924 4.64403999,45.612 C4.94662999,45.8316 5.30399999,45.9636 5.67682999,45.9935 C6.04966999,46.0234 6.42351999,45.9499 6.75727999,45.7813 L11.9993,43.1396 L17.2414,45.7813 C17.5752,45.9496 17.949,46.0227 18.3217,45.9927 C18.6944,45.9627 19.0516,45.8307 19.354,45.6112 C19.6565,45.3916 19.8926,45.0931 20.0363,44.7483 C20.1801,44.4035 20.2259,44.0258 20.1688,43.6566 L19.2738,37.86 L23.4088,33.696 C23.6729,33.4313 23.8584,33.0989 23.945,32.73536 C24.0315,32.37186 24.0157,31.99152 23.8993,31.63644 Z" id="Path" fill="#FFF000" fill-rule="nonzero"></path>
    </g>
</svg>