<svg width="24" height="22" viewBox="0 0 24 22" fill="none" xmlns="http://www.w3.org/2000/svg">
<path d="M0.75 13.8516C0.948912 13.8516 1.13968 13.9306 1.28033 14.0712C1.42098 14.2119 1.5 14.4027 1.5 14.6016V18.3516C1.5 18.7494 1.65804 19.1309 1.93934 19.4122C2.22064 19.6935 2.60218 19.8516 3 19.8516H21C21.3978 19.8516 21.7794 19.6935 22.0607 19.4122C22.342 19.1309 22.5 18.7494 22.5 18.3516V14.6016C22.5 14.4027 22.579 14.2119 22.7197 14.0712C22.8603 13.9306 23.0511 13.8516 23.25 13.8516C23.4489 13.8516 23.6397 13.9306 23.7803 14.0712C23.921 14.2119 24 14.4027 24 14.6016V18.3516C24 19.1472 23.6839 19.9103 23.1213 20.4729C22.5587 21.0355 21.7956 21.3516 21 21.3516H3C2.20435 21.3516 1.44129 21.0355 0.87868 20.4729C0.316071 19.9103 0 19.1472 0 18.3516V14.6016C0 14.4027 0.0790176 14.2119 0.21967 14.0712C0.360322 13.9306 0.551088 13.8516 0.75 13.8516Z" fill="black"/>
<path d="M11.469 0.720341C11.5386 0.650496 11.6214 0.595082 11.7125 0.557272C11.8036 0.519462 11.9013 0.5 12 0.5C12.0986 0.5 12.1963 0.519462 12.2874 0.557272C12.3785 0.595082 12.4613 0.650496 12.531 0.720341L17.031 5.22034C17.1718 5.36117 17.2509 5.55218 17.2509 5.75134C17.2509 5.9505 17.1718 6.14151 17.031 6.28234C16.8901 6.42317 16.6991 6.50229 16.5 6.50229C16.3008 6.50229 16.1098 6.42317 15.969 6.28234L12.75 3.06184V16.2513C12.75 16.4503 12.671 16.641 12.5303 16.7817C12.3896 16.9223 12.1989 17.0013 12 17.0013C11.8011 17.0013 11.6103 16.9223 11.4696 16.7817C11.329 16.641 11.25 16.4503 11.25 16.2513V3.06184L8.03097 6.28234C7.96124 6.35207 7.87846 6.40739 7.78735 6.44513C7.69624 6.48286 7.59859 6.50229 7.49997 6.50229C7.40136 6.50229 7.3037 6.48286 7.2126 6.44513C7.12149 6.40739 7.0387 6.35207 6.96897 6.28234C6.89924 6.21261 6.84392 6.12983 6.80619 6.03872C6.76845 5.94761 6.74902 5.84996 6.74902 5.75134C6.74902 5.65272 6.76845 5.55507 6.80619 5.46397C6.84392 5.37286 6.89924 5.29007 6.96897 5.22034L11.469 0.720341Z" fill="black"/>
</svg>
