<?xml version="1.0" encoding="UTF-8"?>
<svg width="30px" height="30px" viewBox="0 0 30 30" version="1.1" xmlns="http://www.w3.org/2000/svg" xmlns:xlink="http://www.w3.org/1999/xlink">
    <title>Artboard</title>
    <g id="Artboard" stroke="none" stroke-width="1" fill="none" fill-rule="evenodd">
        <g id="wallet-icon" transform="translate(5.000000, 5.000000)" fill="#FFFFFF" fill-rule="nonzero">
            <path d="M17.2188,4.75929561 L2.82625,4.75929561 C2.65435,4.79256561 2.47722,4.78740561 2.30754,4.74419561 C2.13787,4.70097561 1.97985,4.62078561 1.84481,4.50933561 C1.70976,4.39789561 1.60103,4.25797561 1.5264,4.09958561 C1.45177,3.94119561 1.41309,3.76826561 1.41313,3.59317561 L1.41313,3.57060561 L16.625,2.97804561 L16.625,1.56492561 C16.6498,1.35408561 16.6264,1.14036561 16.5565,0.939905613 C16.4866,0.739447613 16.372,0.557491613 16.2215,0.407777613 C16.071,0.258064613 15.8885,0.144507613 15.6876,0.0756825131 C15.4868,0.00685746308 15.273,-0.0154363869 15.0623,0.0104844831 L1.55562,2.20617561 C1.09978,2.37444561 0.706373,2.67822561 0.428277,3.07669561 C0.150181,3.47515561 0.000726323,3.94919561 0,4.43510561 L0,17.2268656 C0,17.6992656 0.187667,18.1523656 0.521716,18.4863656 C0.855765,18.8204656 1.30883,19.0080656 1.78125,19.0080656 L17.2188,19.0080656 C17.6912,19.0080656 18.1442,18.8204656 18.4783,18.4863656 C18.8123,18.1523656 19,17.6992656 19,17.2268656 L19,6.52748561 L19.0012,6.47879561 C19.0012,6.02212561 18.8198,5.58416561 18.4969,5.26124561 C18.1739,4.93833561 17.736,4.75692561 17.2793,4.75692561 L17.2164,4.75810561 L17.2188,4.75929561 Z M15.4375,13.0717658 C14.9649,13.0716656 14.5118,12.8837656 14.1777,12.5494656 C13.8437,12.2152656 13.6561,11.7619656 13.6562,11.2893656 C13.6564,10.8167656 13.8443,10.3636656 14.1786,10.0295656 C14.5128,9.69552561 14.9661,9.50795561 15.4387,9.50810552 C15.6727,9.50818561 15.9044,9.55435561 16.1205,9.64396561 C16.3367,9.73358561 16.5331,9.86490561 16.6985,10.0304656 C16.8639,10.1959656 16.9951,10.3923656 17.0845,10.6086656 C17.174,10.8248656 17.22,11.0565656 17.2199002,11.2905656 C17.2199002,11.5245656 17.1737,11.7562656 17.0841,11.9723656 C16.9945,12.1885656 16.8631,12.3849656 16.6976,12.5503656 C16.5321,12.7157656 16.3356,12.8468656 16.1194,12.9363656 C15.9032,13.0258656 15.6715,13.0718656 15.4375,13.0717658 Z" id="Shape"></path>
        </g>
    </g>
</svg>