<?xml version="1.0" encoding="UTF-8"?>
<svg width="22px" height="22px" viewBox="0 0 22 22" version="1.1" xmlns="http://www.w3.org/2000/svg" xmlns:xlink="http://www.w3.org/1999/xlink">
    <title>Shape</title>
    <g id="Page-1" stroke="none" stroke-width="1" fill="none" fill-rule="evenodd">
        <path d="M11,0 C4.925,0 0,4.925 0,11 C0,17.075 4.925,22 11,22 C17.075,22 22,17.075 22,11 C22,4.925 17.075,0 11,0 Z M10.5,5 C10.2348,5 9.98043,5.10536 9.79289,5.29289 C9.60536,5.48043 9.5,5.73478 9.5,6 C9.5,6.26522 9.60536,6.51957 9.79289,6.70711 C9.98043,6.89464 10.2348,7 10.5,7 L11,7 C11.2652,7 11.5196,6.89464 11.7071,6.70711 C11.8946,6.51957 12,6.26522 12,6 C12,5.73478 11.8946,5.48043 11.7071,5.29289 C11.5196,5.10536 11.2652,5 11,5 L10.5,5 Z M9,9 C8.73478,9 8.48043,9.10536 8.29289,9.29289 C8.10536,9.48043 8,9.73478 8,10 C8,10.2652 8.10536,10.5196 8.29289,10.7071 C8.48043,10.8946 8.73478,11 9,11 L10,11 L10,14 L9,14 C8.73478,14 8.48043,14.1054 8.29289,14.2929 C8.10536,14.4804 8,14.7348 8,15 C8,15.2652 8.10536,15.5196 8.29289,15.7071 C8.48043,15.8946 8.73478,16 9,16 L13,16 C13.2652,16 13.5196,15.8946 13.7071,15.7071 C13.8946,15.5196 14,15.2652 14,15 C14,14.7348 13.8946,14.4804 13.7071,14.2929 C13.5196,14.1054 13.2652,14 13,14 L12,14 L12,10 C12,9.73478 11.8946,9.48043 11.7071,9.29289 C11.5196,9.10536 11.2652,9 11,9 L9,9 Z" id="Shape" fill="#FFFFFF"></path>
    </g>
</svg>