<?xml version="1.0" encoding="UTF-8"?>
<svg width="30px" height="60px" viewBox="0 0 30 60" version="1.1" xmlns="http://www.w3.org/2000/svg" xmlns:xlink="http://www.w3.org/1999/xlink">
    <title>Artboard</title>
    <g id="Artboard" stroke="none" stroke-width="1" fill="none" fill-rule="evenodd">
        <g id="withdraw" fill="#FFFFF0" fill-rule="nonzero">
            <path d="M15,15 C14.1909,15 13.4,15.2638889 12.7272,15.7583333 C12.0545,16.2528889 11.5301,16.9556667 11.2205,17.7778889 C10.9109,18.6002222 10.8298,19.505 10.9877,20.3778889 C11.1455,21.2507778 11.5352,22.0526667 12.1073,22.682 C12.6794,23.3113333 13.4083,23.7398889 14.2019,23.9135556 C14.9955,24.0872222 15.818,23.998 16.5655,23.6574444 C17.313,23.3168889 17.952,22.7401111 18.4015,22.0001111 C18.851,21.26 19.0909,20.39 19.0909,19.5 C19.0909,18.3065556 18.6599,17.1618889 17.8927,16.318 C17.1255,15.4741111 16.085,15 15,15 Z M15,21 C14.7303,21 14.4667,20.912 14.2424,20.7472222 C14.0182,20.5823333 13.8434,20.3481111 13.7402,20.074 C13.637,19.7998889 13.6099,19.4983333 13.6626,19.2073333 C13.7152,18.9164444 13.8451,18.6491111 14.0358,18.4393333 C14.2265,18.2295556 14.4694,18.0866667 14.734,18.0287778 C14.9985,17.9708889 15.2727,18.0006667 15.5218,18.1142222 C15.771,18.2276667 15.984,18.42 16.1338,18.6666667 C16.2837,18.9133333 16.3636,19.2033333 16.3636,19.5 C16.3636,19.8977778 16.22,20.2793333 15.9642,20.5606667 C15.7085,20.842 15.3617,21 15,21 Z M14.0318,11.565 C14.1615,11.7015556 14.3144,11.8085556 14.4818,11.88 C14.645,11.9593333 14.8215,12.0003333 15,12.0003333 C15.1785,12.0003333 15.355,11.9593333 15.5182,11.88 C15.6856,11.8085556 15.8385,11.7015556 15.9682,11.565 L19.0909,8.19 C19.3549,7.89958889 19.5032,7.5057 19.5032,7.095 C19.5032,6.6843 19.3549,6.29041111 19.0909,6 C18.8269,5.70958889 18.4688,5.54643333 18.0955,5.54643333 C17.7221,5.54643333 17.364,5.70958889 17.1,6 L16.3636,6.885 L16.3636,1.5 C16.3636,1.10217556 16.22,0.720644444 15.9642,0.43934 C15.7085,0.158035556 15.3617,0 15,0 C14.6383,0 14.2915,0.158035556 14.0358,0.43934 C13.78,0.720644444 13.6364,1.10217556 13.6364,1.5 L13.6364,6.885 L12.9,6 C12.636,5.70958889 12.2779,5.54643333 11.9045,5.54643333 C11.5312,5.54643333 11.1731,5.70958889 10.9091,6 C10.6451,6.29041111 10.4968,6.6843 10.4968,7.095 C10.4968,7.5057 10.6451,7.89958889 10.9091,8.19 L14.0318,11.565 Z M24.5455,19.5 C24.5455,19.2033333 24.4655,18.9133333 24.3156,18.6666667 C24.1658,18.42 23.9528,18.2276667 23.7037,18.1142222 C23.4545,18.0006667 23.1803,17.9708889 22.9158,18.0287778 C22.6513,18.0866667 22.4083,18.2295556 22.2176,18.4393333 C22.0269,18.6491111 21.897,18.9164444 21.8444,19.2073333 C21.7918,19.4983333 21.8188,19.7998889 21.922,20.074 C22.0252,20.3481111 22.2,20.5823333 22.4242,20.7472222 C22.6485,20.912 22.9121,21 23.1818,21 C23.5435,21 23.8903,20.842 24.1461,20.5606667 C24.4018,20.2793333 24.5455,19.8977778 24.5455,19.5 Z M25.9091,9 L21.8182,9 C21.4565,9 21.1097,9.15803333 20.8539,9.43934444 C20.5982,9.72064444 20.4545,10.1021778 20.4545,10.5 C20.4545,10.8978222 20.5982,11.2793333 20.8539,11.5606667 C21.1097,11.842 21.4565,12 21.8182,12 L25.9091,12 C26.2707,12 26.6176,12.158 26.8733,12.4393333 C27.1291,12.7206667 27.2727,13.1022222 27.2727,13.5 L27.2727,25.5 C27.2727,25.8977778 27.1291,26.2793333 26.8733,26.5606667 C26.6176,26.842 26.2707,27 25.9091,27 L4.09091,27 C3.72925,27 3.3824,26.842 3.12667,26.5606667 C2.87094,26.2793333 2.72727,25.8977778 2.72727,25.5 L2.72727,13.5 C2.72727,13.1022222 2.87094,12.7206667 3.12667,12.4393333 C3.3824,12.158 3.72925,12 4.09091,12 L8.18182,12 C8.54348,12 8.89032,11.842 9.14605,11.5606667 C9.40179,11.2793333 9.54545,10.8978222 9.54545,10.5 C9.54545,10.1021778 9.40179,9.72064444 9.14605,9.43934444 C8.89032,9.15803333 8.54348,9 8.18182,9 L4.09091,9 C3.00593,9 1.96539,9.4741 1.1982,10.3180222 C0.431005,11.1618889 0,12.3065556 0,13.5 L0,25.5 C0,26.6934444 0.431005,27.8381111 1.1982,28.682 C1.96539,29.5258889 3.00593,30 4.09091,30 L25.9091,30 C26.9941,30 28.0346,29.5258889 28.8018,28.682 C29.569,27.8381111 30,26.6934444 30,25.5 L30,13.5 C30,12.3065556 29.569,11.1618889 28.8018,10.3180222 C28.0346,9.4741 26.9941,9 25.9091,9 Z M5.45455,19.5 C5.45455,19.7966667 5.53452,20.0866667 5.68436,20.3333333 C5.8342,20.58 6.04717,20.7723333 6.29634,20.8857778 C6.54551,20.9993333 6.81969,21.0291111 7.08421,20.9712222 C7.34873,20.9133333 7.59171,20.7704444 7.78242,20.5606667 C7.97313,20.3508889 8.103,20.0835556 8.15562,19.7926667 C8.20823,19.5016667 8.18123,19.2001111 8.07802,18.926 C7.97481,18.6518889 7.80003,18.4176667 7.57578,18.2527778 C7.35153,18.088 7.08788,18 6.81818,18 C6.45652,18 6.10968,18.158 5.85395,18.4393333 C5.59821,18.7206667 5.45455,19.1022222 5.45455,19.5 Z" id="Shape"></path>
        </g>
        <g id="withdraw-copy" transform="translate(0.000000, 30.000000)" fill="#FBC407" fill-rule="nonzero">
            <path d="M15,15 C14.1909,15 13.4,15.2638889 12.7272,15.7583333 C12.0545,16.2528889 11.5301,16.9556667 11.2205,17.7778889 C10.9109,18.6002222 10.8298,19.505 10.9877,20.3778889 C11.1455,21.2507778 11.5352,22.0526667 12.1073,22.682 C12.6794,23.3113333 13.4083,23.7398889 14.2019,23.9135556 C14.9955,24.0872222 15.818,23.998 16.5655,23.6574444 C17.313,23.3168889 17.952,22.7401111 18.4015,22.0001111 C18.851,21.26 19.0909,20.39 19.0909,19.5 C19.0909,18.3065556 18.6599,17.1618889 17.8927,16.318 C17.1255,15.4741111 16.085,15 15,15 Z M15,21 C14.7303,21 14.4667,20.912 14.2424,20.7472222 C14.0182,20.5823333 13.8434,20.3481111 13.7402,20.074 C13.637,19.7998889 13.6099,19.4983333 13.6626,19.2073333 C13.7152,18.9164444 13.8451,18.6491111 14.0358,18.4393333 C14.2265,18.2295556 14.4694,18.0866667 14.734,18.0287778 C14.9985,17.9708889 15.2727,18.0006667 15.5218,18.1142222 C15.771,18.2276667 15.984,18.42 16.1338,18.6666667 C16.2837,18.9133333 16.3636,19.2033333 16.3636,19.5 C16.3636,19.8977778 16.22,20.2793333 15.9642,20.5606667 C15.7085,20.842 15.3617,21 15,21 Z M14.0318,11.565 C14.1615,11.7015556 14.3144,11.8085556 14.4818,11.88 C14.645,11.9593333 14.8215,12.0003333 15,12.0003333 C15.1785,12.0003333 15.355,11.9593333 15.5182,11.88 C15.6856,11.8085556 15.8385,11.7015556 15.9682,11.565 L19.0909,8.19 C19.3549,7.89958889 19.5032,7.5057 19.5032,7.095 C19.5032,6.6843 19.3549,6.29041111 19.0909,6 C18.8269,5.70958889 18.4688,5.54643333 18.0955,5.54643333 C17.7221,5.54643333 17.364,5.70958889 17.1,6 L16.3636,6.885 L16.3636,1.5 C16.3636,1.10217556 16.22,0.720644444 15.9642,0.43934 C15.7085,0.158035556 15.3617,0 15,0 C14.6383,0 14.2915,0.158035556 14.0358,0.43934 C13.78,0.720644444 13.6364,1.10217556 13.6364,1.5 L13.6364,6.885 L12.9,6 C12.636,5.70958889 12.2779,5.54643333 11.9045,5.54643333 C11.5312,5.54643333 11.1731,5.70958889 10.9091,6 C10.6451,6.29041111 10.4968,6.6843 10.4968,7.095 C10.4968,7.5057 10.6451,7.89958889 10.9091,8.19 L14.0318,11.565 Z M24.5455,19.5 C24.5455,19.2033333 24.4655,18.9133333 24.3156,18.6666667 C24.1658,18.42 23.9528,18.2276667 23.7037,18.1142222 C23.4545,18.0006667 23.1803,17.9708889 22.9158,18.0287778 C22.6513,18.0866667 22.4083,18.2295556 22.2176,18.4393333 C22.0269,18.6491111 21.897,18.9164444 21.8444,19.2073333 C21.7918,19.4983333 21.8188,19.7998889 21.922,20.074 C22.0252,20.3481111 22.2,20.5823333 22.4242,20.7472222 C22.6485,20.912 22.9121,21 23.1818,21 C23.5435,21 23.8903,20.842 24.1461,20.5606667 C24.4018,20.2793333 24.5455,19.8977778 24.5455,19.5 Z M25.9091,9 L21.8182,9 C21.4565,9 21.1097,9.15803333 20.8539,9.43934444 C20.5982,9.72064444 20.4545,10.1021778 20.4545,10.5 C20.4545,10.8978222 20.5982,11.2793333 20.8539,11.5606667 C21.1097,11.842 21.4565,12 21.8182,12 L25.9091,12 C26.2707,12 26.6176,12.158 26.8733,12.4393333 C27.1291,12.7206667 27.2727,13.1022222 27.2727,13.5 L27.2727,25.5 C27.2727,25.8977778 27.1291,26.2793333 26.8733,26.5606667 C26.6176,26.842 26.2707,27 25.9091,27 L4.09091,27 C3.72925,27 3.3824,26.842 3.12667,26.5606667 C2.87094,26.2793333 2.72727,25.8977778 2.72727,25.5 L2.72727,13.5 C2.72727,13.1022222 2.87094,12.7206667 3.12667,12.4393333 C3.3824,12.158 3.72925,12 4.09091,12 L8.18182,12 C8.54348,12 8.89032,11.842 9.14605,11.5606667 C9.40179,11.2793333 9.54545,10.8978222 9.54545,10.5 C9.54545,10.1021778 9.40179,9.72064444 9.14605,9.43934444 C8.89032,9.15803333 8.54348,9 8.18182,9 L4.09091,9 C3.00593,9 1.96539,9.4741 1.1982,10.3180222 C0.431005,11.1618889 0,12.3065556 0,13.5 L0,25.5 C0,26.6934444 0.431005,27.8381111 1.1982,28.682 C1.96539,29.5258889 3.00593,30 4.09091,30 L25.9091,30 C26.9941,30 28.0346,29.5258889 28.8018,28.682 C29.569,27.8381111 30,26.6934444 30,25.5 L30,13.5 C30,12.3065556 29.569,11.1618889 28.8018,10.3180222 C28.0346,9.4741 26.9941,9 25.9091,9 Z M5.45455,19.5 C5.45455,19.7966667 5.53452,20.0866667 5.68436,20.3333333 C5.8342,20.58 6.04717,20.7723333 6.29634,20.8857778 C6.54551,20.9993333 6.81969,21.0291111 7.08421,20.9712222 C7.34873,20.9133333 7.59171,20.7704444 7.78242,20.5606667 C7.97313,20.3508889 8.103,20.0835556 8.15562,19.7926667 C8.20823,19.5016667 8.18123,19.2001111 8.07802,18.926 C7.97481,18.6518889 7.80003,18.4176667 7.57578,18.2527778 C7.35153,18.088 7.08788,18 6.81818,18 C6.45652,18 6.10968,18.158 5.85395,18.4393333 C5.59821,18.7206667 5.45455,19.1022222 5.45455,19.5 Z" id="Shape"></path>
        </g>
    </g>
</svg>